<svg width="25" height="25" viewBox="0 0 25 25" fill="none" xmlns="http://www.w3.org/2000/svg">
<path d="M12.5826 3.94385C11.8255 3.94385 11.1667 4.36452 10.8271 4.98488C10.5619 5.46932 10.1349 5.94385 9.58264 5.94385H8.58264C6.92579 5.94385 5.58264 7.28699 5.58264 8.94385V18.9438C5.58264 20.6007 6.92579 21.9438 8.58264 21.9438H16.5826C18.2395 21.9438 19.5826 20.6007 19.5826 18.9438V8.94385C19.5826 7.28699 18.2395 5.94385 16.5826 5.94385H15.5826C15.0304 5.94385 14.6034 5.46932 14.3382 4.98488C13.9986 4.36452 13.3397 3.94385 12.5826 3.94385Z" stroke="#BFBFBF" stroke-width="2" stroke-linecap="round" stroke-linejoin="round"/>
<path d="M9.58264 13.9438H15.5826M12.5826 10.9438L12.5826 16.9438" stroke="#BFBFBF" stroke-width="2" stroke-linecap="round" stroke-linejoin="round"/>
<rect x="12.0826" y="5.44385" width="1" height="1" rx="0.5" stroke="#BFBFBF" stroke-linecap="round" stroke-linejoin="round"/>
</svg>
