<svg version="1.0" xmlns="http://www.w3.org/2000/svg"
 width="512.000000pt" height="512.000000pt" viewBox="0 0 512.000000 512.000000"
 preserveAspectRatio="xMidYMid meet">

<g transform="translate(0.000000,512.000000) scale(0.100000,-0.100000)"
fill="#000000" stroke="none">
<path d="M157 3945 c-83 -32 -140 -98 -152 -180 -7 -42 86 -1139 105 -1257 32
-188 141 -335 308 -415 42 -20 78 -37 80 -38 1 -1 -52 -179 -118 -396 -67
-217 -122 -407 -122 -423 -1 -33 40 -76 72 -76 44 0 68 41 112 190 l44 145
515 3 515 2 45 -147 c46 -157 68 -193 114 -193 30 0 75 41 75 68 0 11 -54 196
-120 412 -66 215 -120 394 -120 396 0 2 42 4 93 4 109 0 154 17 209 78 41 46
58 94 58 167 0 125 -63 249 -160 316 -91 63 -89 62 -512 68 -370 6 -388 7
-414 27 -66 49 -63 35 -105 515 -21 244 -44 464 -49 489 -24 98 -117 203 -208
235 -65 23 -216 29 -265 10z m211 -151 c48 -20 86 -56 106 -102 11 -26 27
-167 55 -487 22 -247 45 -466 52 -485 18 -51 66 -115 111 -146 71 -50 112 -54
498 -54 392 0 399 -2 464 -66 65 -65 87 -184 45 -238 l-20 -26 -545 0 c-524 0
-547 1 -606 21 -114 38 -190 107 -240 216 -31 70 -28 44 -103 902 -39 441 -39
446 9 469 32 16 132 14 174 -4z m1036 -1929 c29 -93 56 -180 60 -192 l7 -23
-465 0 c-318 0 -466 3 -466 10 0 6 26 94 57 196 l57 184 349 -2 349 -3 52
-170z"/>
<path d="M4731 3945 c-69 -20 -108 -44 -161 -101 -44 -48 -74 -106 -85 -164
-3 -19 -23 -232 -44 -474 -42 -474 -39 -461 -105 -510 -26 -20 -44 -21 -414
-27 -423 -6 -421 -5 -512 -68 -97 -67 -160 -191 -160 -316 0 -73 17 -121 58
-167 55 -61 100 -78 210 -78 50 0 92 -2 92 -4 0 -2 -54 -181 -120 -396 -66
-216 -120 -401 -120 -412 0 -27 45 -68 75 -68 46 0 68 36 114 193 l45 147 515
-2 515 -3 44 -145 c44 -149 68 -190 112 -190 32 0 73 43 72 76 0 16 -55 207
-122 424 -66 217 -117 396 -113 398 4 1 37 17 73 35 76 37 95 69 69 115 -25
46 -59 50 -136 16 l-68 -29 -562 -3 -561 -3 -21 27 c-42 54 -20 173 45 238 65
64 72 66 464 66 386 0 427 4 498 54 45 31 93 95 111 146 7 19 30 238 52 485
28 320 44 461 55 487 20 46 58 82 106 102 43 19 136 21 171 5 52 -24 52 -13
-2 -645 -29 -324 -56 -611 -61 -637 -14 -68 -12 -92 8 -115 53 -64 122 -20
140 88 6 36 34 333 63 660 56 651 56 640 0 717 -43 59 -107 87 -206 90 -48 2
-102 -3 -134 -12z m-208 -2090 c31 -101 57 -189 57 -195 0 -7 -149 -10 -466
-10 -394 0 -465 2 -461 14 3 8 29 90 57 182 28 93 53 175 55 182 3 9 83 12
353 12 l348 0 57 -185z"/>
<path d="M1463 3450 c-139 -29 -263 -170 -263 -299 0 -51 39 -121 81 -146 32
-19 56 -20 524 -25 l490 -5 3 -681 2 -681 -63 -5 c-119 -10 -210 -84 -246
-203 -27 -87 -27 -133 2 -176 46 -70 37 -69 567 -69 530 0 521 -1 567 69 29
43 29 89 2 176 -36 119 -127 193 -246 203 l-63 5 2 681 3 681 490 5 c468 5
492 6 524 25 42 25 81 95 81 146 0 104 -86 225 -195 276 l-60 28 -820 3 c-587
2 -827 0 -846 -9 -49 -20 -60 -98 -17 -126 7 -4 382 -10 833 -13 784 -5 822
-6 859 -24 43 -22 98 -99 94 -131 -3 -20 -11 -20 -1208 -20 -1197 0 -1205 0
-1208 20 -1 11 10 41 26 66 42 66 83 82 220 89 104 5 115 7 133 29 24 30 24
62 0 92 -18 22 -27 24 -123 26 -56 1 -122 -2 -145 -7z m1207 -1155 l0 -685
-110 0 -110 0 0 685 0 685 110 0 110 0 0 -685z m257 -855 c33 -20 55 -54 67
-102 l6 -28 -440 0 -440 0 6 28 c12 48 34 82 67 102 30 19 52 20 367 20 315 0
337 -1 367 -20z"/>
</g>
</svg>
