<svg width="18" height="21" viewBox="0 0 18 21" fill="none" xmlns="http://www.w3.org/2000/svg">
<path d="M0.0888672 19.3621C0.0888672 19.6135 0.192258 19.8546 0.376271 20.0324C0.560454 20.2102 0.810028 20.31 1.07039 20.31H11.0997C11.36 20.31 11.6098 20.2102 11.7938 20.0324C11.978 19.8546 12.0814 19.6136 12.0814 19.3621V16.0253C12.0814 15.6866 11.8943 15.3737 11.5905 15.2044C11.2868 15.035 10.9126 15.035 10.609 15.2044C10.3053 15.3737 10.1182 15.6866 10.1182 16.0253V18.414H2.05209V2.89133H10.1182V5.28004C10.1182 5.61876 10.3053 5.93167 10.609 6.10095C10.9126 6.27039 11.2868 6.27039 11.5905 6.10095C11.8943 5.93167 12.0814 5.61872 12.0814 5.28004V1.94325C12.0814 1.69182 11.978 1.45078 11.7938 1.27292C11.6098 1.09521 11.3601 0.995361 11.0997 0.995361H1.07039C0.810037 0.995361 0.56045 1.09521 0.376271 1.27292C0.192258 1.45079 0.0888672 1.69181 0.0888672 1.94325V19.3621Z" fill="#BFBFBF"/>
<path d="M17.6349 10.0039L14.2533 6.53437C14.0131 6.28756 13.6547 6.18325 13.3134 6.26078C12.9719 6.33831 12.6992 6.58578 12.598 6.91013C12.4969 7.23447 12.5825 7.58627 12.8226 7.83307L14.6386 9.70536H5.89239C5.54182 9.70536 5.21777 9.88604 5.04235 10.1793C4.86707 10.4726 4.86707 10.8339 5.04235 11.1272C5.21781 11.4204 5.54182 11.6011 5.89239 11.6011H14.6386L12.8226 13.4734C12.5825 13.7202 12.4969 14.072 12.598 14.3963C12.6992 14.7207 12.9719 14.9681 13.3134 15.0457C13.6547 15.1232 14.0131 15.0189 14.2533 14.7721L17.6349 11.3026C17.806 11.1269 17.9014 10.8946 17.9014 10.6532C17.9014 10.4119 17.806 10.1796 17.6349 10.0039V10.0039Z" fill="#BFBFBF"/>
</svg>
