<svg width="166" height="106" viewBox="0 0 166 106" fill="none" xmlns="http://www.w3.org/2000/svg">
<path d="M143.814 64.0955C143.263 47.0078 136.388 31.6023 125.566 20.3761C114.453 8.84933 99.1757 1.73182 82.3128 1.73182C65.4505 1.73182 50.1727 8.84969 39.0606 20.3765C28.2387 31.6027 21.3645 47.0081 20.8151 64.0955H19.2341C19.7852 46.5802 26.8275 30.7871 37.9198 19.2801C49.3238 7.45103 65.0045 0.146305 82.3128 0.146305C99.6219 0.146305 115.303 7.45103 126.706 19.2798C137.8 30.7868 144.842 46.5802 145.395 64.0955H143.814Z" fill="#C7C8D3"/>
<path d="M9.42366 86.944L10.2021 83.7118C13.0095 82.6683 21.9695 79.9563 21.9695 76.7341C21.9695 73.4702 21.0771 73.7901 19.6604 74.8222C17.344 76.5103 13.2744 78.5471 10.2415 79.3925L9.52187 73.5524C16.0345 73.2772 21.5348 69.9468 22.9691 67.2664C23.0479 67.1075 23.088 66.9872 23.088 66.8668C23.0479 66.3056 22.289 65.4667 21.7288 65.5067C17.9684 65.5067 14.9306 69.8715 8.12088 66.825C7.27398 66.4787 3.00434 63.535 3.48144 67.1846C3.52206 67.825 3.56449 68.0338 3.72454 68.673C5.37347 75.0954 6.63745 86.2331 2.40479 91.9108C6.58228 91.6536 14.4978 91.3564 22.7836 87.0402L21.8664 83.2463L9.42366 86.944ZM140.806 91.2887C150.014 90.2368 154.188 84.6124 156.922 82.973L158.496 88.6329C158.971 91.6321 162.448 92.001 164.493 91.2321C164.773 91.0722 164.974 90.9112 164.894 90.5921C164.215 88.1929 162.561 84.7325 162.041 82.2531C162.041 82.0928 161.961 81.8927 162.081 81.7321C162.121 81.7321 162.081 81.7321 162.081 81.653C162.081 81.6121 162.081 81.6121 162.081 81.5728C163.399 75.7339 163.841 69.5335 166 64.0953C159.962 66.734 150.564 66.9337 148.006 67.0147C143.913 67.2069 144.441 72.823 144.848 75.4937C145.532 79.1337 146.467 82.4528 150.885 82.4528C150.645 82.5328 150.485 82.6531 150.205 82.7324C146.283 84.2674 142.521 87.4934 140.806 91.2887ZM157.563 77.0931C155.662 77.8061 153.603 79.5931 151.605 77.7325C151.085 77.2134 150.804 76.4537 150.804 75.4542C150.804 72.7875 156.049 70.8528 158.243 70.2139L157.563 77.0931ZM130.111 71.6832C128.792 73.403 127.871 75.2429 126.992 77.1222C126.032 79.3613 124.872 81.9216 123.833 83.0021C123.371 79.5954 123.5 70.2324 120.914 67.923C120.394 67.6434 119.915 67.3637 119.475 67.0833C118.876 66.8036 118.316 66.564 117.675 66.403C117.395 66.2843 117.156 66.2843 116.755 66.2843C116.235 66.2843 115.795 66.564 115.596 67.0037C116.119 71.4548 119.866 78.7378 116.515 88.7617C116.396 89.201 116.235 89.7204 116.235 90.201C116.235 91.0008 116.596 91.6411 117.556 91.6411C123.833 90.7905 128.507 85.433 131.59 80.2019C131.337 83.8596 131.269 90.4126 135.629 91.7204C136.589 92.0808 137.429 92.2805 137.948 92.2805C139.188 92.2805 139.387 91.6807 139.427 91.1208C139.427 90.8404 139.348 90.6001 139.188 90.1601C139.068 89.8804 138.908 89.3614 138.588 88.7617C134.922 83.0015 136.506 71.0531 139.787 65.5235C134.234 66.2043 132.35 68.9233 130.111 71.6832ZM95.2608 72.2675C95.4209 72.747 96.0198 73.3071 96.74 73.0667C97.6524 72.8086 104.027 71.545 104.815 70.9672C105.094 70.8073 105.214 70.9272 105.174 71.1273C105.656 74.6699 101.429 76.5288 99.5583 78.4074C99.077 78.8912 98.7527 79.3051 98.5466 79.6553C96.3823 83.3254 105.931 79.4709 106.968 79.1825C107.04 79.1583 107.054 80.1081 107.079 80.918C107.176 83.9792 103.43 85.1228 99.7184 86.2469C97.0152 87.0655 95.0007 86.6776 94.2824 90.7043L93.9787 92.405C96.4575 91.9241 102.575 90.6846 106.215 89.525C107.893 89.0047 109.293 88.4447 110.293 87.4447C110.772 86.9253 111.012 86.5254 111.212 85.8848C111.452 85.3257 111.452 84.7246 111.452 84.2054C111.452 83.4052 111.292 81.6457 111.332 81.0857C111.332 80.8858 111.332 80.6454 111.372 80.446C111.572 79.0859 111.812 77.8059 111.931 76.4462C111.931 76.0462 111.771 75.646 111.452 75.3265C111.172 75.0066 110.692 74.8072 109.973 74.8072C109.613 74.8072 109.253 74.8468 108.893 74.967C109.973 73.2062 111.132 71.2066 111.972 69.3675C112.652 67.8866 113.012 67.1669 113.211 65.7267C113.211 64.9677 112.732 64.4879 111.972 64.4879C111.172 64.5277 110.452 65.0072 109.733 65.2869C103.948 67.2635 98.0313 64.9946 95.5367 66.5273C94.9783 66.887 94.2987 67.4877 94.3776 68.2076L95.2608 72.2675ZM72.4722 89.1572C72.953 88.5976 74.694 85.7889 75.313 84.1821L81.6026 82.5622L81.762 83.7218C82.7223 91.3941 83.6522 90.347 90.1006 91.1504C90.6602 91.2312 91.0997 90.8707 90.8202 90.5911C89.3362 89.6507 87.8461 86.5557 86.7209 81.2424C88.3602 80.6021 88.0401 80.8422 89.3598 79.9232C90.7184 78.9229 91.8781 77.7633 92.1188 76.0832L92.166 73.6881C92.2455 72.9291 91.8459 72.9291 91.4865 73.4484C89.5672 76.4878 86.0019 77.7633 85.4418 78.0432L83.6807 69.0043C83.5619 68.444 82.7617 68.044 81.642 67.7241L78.2835 66.604C77.3645 66.2843 76.1641 66.164 75.5646 66.164C74.4449 66.3634 74.1951 67.6523 73.915 68.8534C73.0118 73.4963 67.5042 88.1756 64.4355 91.7569C64.2361 91.957 64.2755 92.1581 64.7556 92.0377C65.7928 91.6917 72.1515 89.6164 72.4722 89.1572ZM79.6226 71.8L80.9224 79.7221L76.5303 81.0213C78.1071 76.8414 79.0176 74.0987 79.6226 71.8ZM64.2536 71.2466C62.2949 75.2465 59.77 78.1015 56.6558 80.231L56.1836 73.5998C58.3102 72.6641 62.241 71.9634 64.2536 71.2466ZM48.8192 69.033C47.4327 70.6972 48.3827 76.4746 49.2193 77.0711C49.3387 77.1914 49.5388 77.2717 49.6182 77.3117C49.8982 77.3514 49.9789 77.552 49.9789 77.8317C51.2774 86.6694 48.8586 89.5863 47.6194 91.15C47.6194 91.4696 47.6594 91.8303 48.0189 91.9506C49.2017 92.3446 53.7508 91.1864 55.216 90.5499C55.7762 88.7497 56.1763 86.8699 56.1763 84.9904C57.0165 84.791 57.6949 84.5106 58.4145 84.27C61.6936 83.2307 64.013 80.631 65.6122 77.992C68.5318 73.4321 69.8685 69.8331 70.8281 65.514C66.9622 66.7312 49.8055 67.8484 48.8192 69.033ZM28.9192 83.5672C28.7537 86.3056 28.0069 89.2522 26.8041 91.741C29.1278 91.1597 34.8936 91.2023 39.0426 90.7457C41.7385 90.413 43.9378 88.9206 43.9785 86.5959C44.0203 84.9776 43.7299 83.1106 43.813 81.7828C43.9785 81.036 44.1452 80.2893 44.2694 79.6665C44.4349 78.7112 44.7666 77.799 44.1033 77.1357C43.3159 76.305 41.9876 76.6365 40.951 77.0109C40.6194 77.1765 40.6606 76.8859 40.7424 76.8023C42.5266 73.8148 44.5186 70.9518 45.6795 67.8394C45.9705 66.927 46.8417 65.1843 44.6847 65.7231C44.3107 65.8479 42.8175 66.5538 42.1119 66.8022C38.9589 67.9638 35.1427 68.0052 31.6994 68.13C29.1629 68.2716 24.2089 67.9621 23.8172 71.8649C23.4371 75.3199 24.1622 78.5703 28.173 75.5581C28.2372 75.5157 28.3027 75.5063 28.3554 75.5297C28.6949 75.6817 28.9714 82.7658 28.9192 83.5672ZM34.3128 84.9776C36.0551 84.3964 40.2187 81.7366 40.5096 82.1932C41.1747 83.6458 36.5953 87.384 33.8151 88.3393L34.3128 84.9776ZM38.9589 70.4542C38.7037 72.3354 36.5589 77.3723 34.6456 78.9196V73.3174C36.0151 72.3371 37.4676 71.2011 38.9589 70.4542Z" fill="#C7C8D3"/>
<path fill-rule="evenodd" clip-rule="evenodd" d="M0.544077 37.099L0.700991 36.9445C0.700991 37.099 0.85721 37.099 0.85721 37.099H0.544077ZM130.836 29.2185C130.985 29.5348 130.985 29.7062 130.985 30.0208C130.836 30.3461 130.53 30.1854 130.371 30.1854C130.071 30.0205 130.071 29.5348 129.916 29.2185H130.836ZM89.8602 25.1961C90.1603 25.5194 90.4712 26.1617 91.0849 25.8366C91.2407 25.6749 91.3922 25.6749 91.3922 25.3489C91.5507 25.6749 91.8616 26.4807 92.4726 25.9988C92.4726 25.6749 92.4726 25.5194 92.624 25.3489C92.9277 25.3489 92.624 25.8366 92.9277 26.1617C92.624 26.6424 92.3131 27.2927 91.8615 27.9329C91.703 27.7722 91.5507 27.4472 91.0849 27.4472C91.3922 27.2927 92.1617 27.6072 92.1617 26.9657C92.1617 25.8366 90.7811 26.4807 90.1603 26.1617C90.0152 26.1617 89.8602 26.4807 89.7123 26.3255C89.7123 26.1617 89.5529 25.8366 89.2492 25.8366C88.791 25.6749 88.3248 26.6425 88.3248 25.6749C88.0214 25.6749 87.8694 25.8366 87.8694 25.9988V26.1617C87.2518 26.1617 86.7894 26.3255 86.3266 26.4807C86.1826 26.4807 86.1822 26.1617 86.0236 26.3255C85.8792 26.4807 85.8789 26.9657 86.0236 27.1306C86.4894 27.4472 87.2518 26.9657 87.7145 27.6072C87.4035 27.9325 86.7894 27.9329 86.9449 28.4123C86.6376 28.0971 86.1822 27.9329 85.8789 27.9329C86.1826 27.4472 85.8789 26.8053 85.2574 26.6425L84.4917 26.9657C84.4917 26.8053 84.3362 26.6424 84.3362 26.4807C84.4917 26.4807 84.6396 26.3255 84.7989 26.3255V26.4807C84.9544 26.1617 85.7129 26.3255 85.5682 25.6749C85.5682 25.9987 85.8789 25.8366 86.0236 25.6749C86.0236 25.9987 86.4894 26.1617 86.6376 25.9988L86.7894 25.6749C87.1001 25.8366 87.0997 26.1617 87.559 25.9988C87.8694 25.8366 88.0211 25.6749 88.0211 25.1961L87.7145 25.034C88.4838 24.3903 88.9461 25.6749 89.8602 25.1961ZM68.3775 25.034C68.0671 25.3489 68.2282 25.6749 68.2282 25.9988C68.5299 26.3255 69.2991 25.6749 69.6084 26.3255C70.066 26.4807 69.9087 25.5194 70.5287 25.8366C70.9873 26.3255 72.0627 26.6425 71.608 27.4472C71.9005 27.6073 71.6079 27.9329 71.7552 27.9329C71.4451 27.9325 71.1407 27.7722 70.8307 27.9329C70.8307 27.6073 70.6783 27.1306 70.2191 26.9657C69.9087 26.8053 69.6084 26.8053 69.4515 27.1306L69.1423 27.2927C69.1423 26.1617 67.7648 26.9657 67.4551 26.1617C67.9179 25.8366 68.0667 25.5194 68.0667 25.034C68.0671 25.1961 68.2286 25.034 68.3775 25.034ZM117.178 25.5194H116.877L117.178 25.1961C117.332 25.1961 117.177 25.3489 117.177 25.5194H117.178ZM66.2287 25.8366C66.3856 25.9987 66.5387 26.1617 66.6956 26.1617L66.9882 25.8366C67.1503 25.8366 66.9882 25.9987 67.1503 26.1617C66.6956 26.3255 66.5387 26.8053 66.0763 26.9657C65.9194 26.6425 65.4633 26.4807 65.1543 26.6425L64.9971 26.9657C64.9971 26.6425 64.6971 26.4807 64.5402 26.1617C64.9971 26.1617 64.6971 25.3489 65.1543 25.1961C65.4633 25.6749 66.5387 24.8702 66.2287 25.8366ZM95.6951 26.6425C95.6951 26.6425 95.8465 26.6425 95.8465 26.8053C95.3842 26.4807 94.9255 27.6072 94.6147 27.2927C94.4633 26.9657 94.1595 27.1306 93.8522 27.1306C94.1595 26.4807 94.6147 26.1617 95.0734 25.6749C95.0734 25.9987 96.1538 26.1617 95.6951 26.6425ZM103.824 26.4807L103.365 26.1617L103.824 26.3255V26.4807ZM107.809 26.9657L107.198 26.6425V26.1617C107.198 26.4807 107.664 26.6425 107.808 26.9657H107.809ZM100.605 26.9657C100.294 26.9657 99.9873 26.9657 99.8386 27.1306H99.6836C99.6836 26.6425 100.294 27.1306 100.453 26.6425L100.605 26.9657ZM102.755 27.1306C102.451 27.2927 102.296 27.7722 101.829 27.7722C101.83 27.6072 101.829 27.6072 101.829 27.6072C101.686 27.4472 101.374 27.4472 101.219 27.1306C101.686 26.8053 102.296 26.9657 102.755 27.1306ZM83.5704 27.9325C82.9566 28.2502 83.4149 28.739 83.4149 29.0619L83.5704 29.3789L83.4149 29.5348C82.8007 28.8942 82.6487 27.9329 82.6487 26.9657C82.9566 27.1306 83.2667 27.7718 83.5704 27.9325ZM105.363 28.4123C105.208 28.5741 104.897 28.739 104.753 28.5745C104.897 28.2502 104.753 27.7722 104.442 27.7722L105.056 27.4472C105.208 27.6073 104.593 28.2502 105.363 28.4123ZM78.0428 28.0971C77.736 28.5741 78.0425 28.7391 78.5018 28.8942C78.6566 28.7387 79.1228 29.2185 79.4228 28.8942V29.3789C78.8121 29.2185 78.1983 29.0619 77.7356 28.5745C77.736 28.2502 77.5874 27.9329 77.4323 27.7722L78.0428 28.0971ZM81.8798 28.4123C81.7242 28.5741 81.8795 28.7391 81.8795 28.8942C81.5795 28.8942 80.9655 28.739 80.9655 28.2502C81.2692 27.9325 81.8798 27.9329 81.8798 28.4123ZM95.9953 28.5741H95.6951C95.6951 28.4123 95.8465 28.412 95.9953 28.5741ZM64.6971 29.5348C64.8498 29.3789 64.8498 29.2185 64.9971 29.2185C64.8498 30.0205 66.5387 30.0208 65.7739 30.8259C64.3871 30.3461 63.4651 29.2185 62.0856 29.0619L62.3962 28.5741C63.008 29.0619 63.7755 29.8586 64.6971 29.5348ZM90.1603 28.8942C90.1603 28.8942 90.0151 29.0619 89.8602 29.0619V28.5741C90.0151 28.5741 90.1603 28.8942 90.1603 28.8942ZM72.6771 28.8942C72.8222 29.3789 73.2882 29.2185 73.5884 29.3793C72.2099 29.8586 70.6783 30.1854 69.1423 30.9877C68.3775 30.9877 67.7648 30.502 67.4551 29.8586C67.9179 29.7063 68.2282 30.8259 68.8322 30.502L69.2991 30.1854L69.1423 30.0205C69.9087 30.3461 69.9087 29.0619 70.5287 30.0208C70.9873 29.8586 71.6079 29.8586 71.7552 29.3793V28.8942C72.0627 28.8942 72.3665 29.2185 72.6771 28.8942ZM33.0779 29.0619L32.7763 28.8942H33.0779V29.0619ZM68.3775 29.2185C68.3775 29.2185 68.2282 29.3793 68.0667 29.3793C68.0671 29.0619 68.2286 28.8942 68.3775 29.2185ZM84.3365 29.0619C84.3365 29.2185 84.4913 29.3793 84.7989 29.3793C84.6396 29.5348 84.6396 29.5348 84.6396 29.7063C84.6396 29.3789 84.3362 29.3793 84.0327 29.2185C84.0327 29.0619 84.1886 28.8942 84.3365 29.0619ZM30.1654 29.5348C30.32 29.8586 29.8652 30.0208 29.7083 30.1854C29.3983 30.1854 29.3983 30.0208 29.089 29.7063C29.089 29.3789 29.3983 29.0619 29.7083 29.0619C30.0082 29.0619 30.0082 29.3793 30.1654 29.5348ZM125.923 29.7063C126.382 30.3461 125.623 30.9877 126.234 31.632C125.772 31.4699 125.623 30.9877 125.313 30.6637C125.623 30.502 125.923 30.0208 125.623 29.7063L125.002 29.0619C125.461 29.0619 125.461 29.7063 125.923 29.7063ZM59.9382 30.1854C60.0868 29.8586 60.8598 30.502 61.007 29.7063L63.3179 30.502V30.8259L62.5431 30.3461V30.6634C62.0859 30.3461 61.4743 31.1526 61.007 30.6637C60.7068 30.6634 60.3964 30.8259 60.2395 31.1526V31.4699C60.0868 31.1526 59.6274 31.313 59.4748 31.1526L59.0162 31.632C58.5531 31.313 58.0956 30.8259 57.637 30.3465C57.9387 30.3461 59.0162 30.502 59.0162 30.0208C58.8628 29.7062 59.1644 29.3793 58.8628 29.2185C59.1647 29.5348 59.4751 30.1854 59.9382 30.1854ZM92.624 29.5348H92.7825L92.624 30.0205H92.4726L92.624 29.5348ZM136.361 30.502L136.672 30.1854L136.82 30.3461L136.361 30.502ZM108.127 30.6634C108.275 30.8259 108.585 30.9877 108.889 30.9877C108.43 32.1195 107.365 30.9877 106.895 32.1195C106.129 32.2827 105.363 32.2827 104.753 32.5989C104.442 31.7924 103.824 32.5989 103.217 32.2827L102.899 32.5989C102.899 32.5989 102.899 32.5989 102.755 32.5989C102.899 31.7924 103.062 31.7928 103.672 31.4699C103.824 31.4699 103.824 31.7928 104.138 31.7928L104.442 31.1526C104.593 31.4699 104.753 31.313 105.055 31.313C105.363 31.1526 105.519 30.6637 105.818 31.1526C106.439 30.9877 106.895 31.313 107.198 31.313C107.516 31.313 107.664 30.9877 107.808 30.8259L107.516 30.1854C107.809 30.3461 108.127 30.185 108.127 30.6634ZM85.8792 30.8259L85.5682 30.9877L85.8792 30.6634C85.8792 30.8259 85.8792 30.8259 85.8792 30.8259ZM137.897 31.313C137.593 31.4699 137.737 32.1195 138.048 32.4343C137.897 32.5989 137.127 32.1195 136.82 32.5989C136.672 32.4343 136.051 32.2827 135.895 32.4343C135.437 32.7597 135.747 33.2496 135.895 33.7266C136.205 34.6855 136.82 33.4013 137.127 34.206C136.516 34.3706 135.747 34.5331 135.137 34.6858C135.437 34.206 135.137 33.7266 135.436 33.2496C135.285 32.9218 135.436 32.2827 134.981 32.4343C134.671 33.4013 133.605 33.5564 132.983 33.8887H132.832C133.45 33.7262 133.134 33.085 133.449 32.7597L134.826 31.632C134.981 31.7924 135.285 31.9574 135.436 31.7928L136.051 31.1526C136.205 31.4699 136.361 31.9574 136.671 31.9574C136.971 31.7924 137.282 31.7928 137.282 31.4699V30.6634C137.437 30.9877 137.896 30.9877 137.896 31.313H137.897ZM102.602 31.313H102.451V30.8259H102.602V31.313ZM112.111 31.957C112.419 32.1195 112.877 32.2827 113.033 32.1195C111.657 33.4013 110.576 34.6858 108.889 35.0125C109.045 34.6855 108.889 34.5331 108.585 34.206H107.809C108.275 33.7262 108.734 33.2496 109.196 32.7597C109.356 32.9218 109.655 32.7597 109.81 32.5989C109.966 32.2827 109.81 31.9574 110.277 31.7928C110.277 31.7924 110.428 32.2827 110.732 32.4343C111.043 32.4343 111.353 32.1195 111.353 31.7928C111.353 31.4699 110.887 30.8259 111.498 30.8259C111.657 31.1526 112.419 31.1523 112.111 31.957ZM43.0558 31.7924L42.4455 31.632L42.903 31.313C43.0558 31.313 43.365 31.4696 43.0558 31.7924ZM45.0546 31.4699C45.3583 31.632 45.0542 31.9574 44.8921 32.2827L44.7481 32.1195C45.0546 32.1195 44.8925 31.632 45.0546 31.4699ZM120.248 31.632C120.866 31.1526 120.71 32.4343 121.324 32.1195L121.628 32.7597C121.325 33.0846 120.866 32.2827 120.555 32.7597C119.945 33.0846 119.789 32.1195 119.323 31.9574C119.175 31.957 118.868 32.1195 118.712 32.2827V31.957C119.175 32.1195 119.323 31.632 119.478 31.4699C119.789 31.4699 119.944 31.9574 120.248 31.632ZM101.83 32.1195C101.686 31.957 101.064 31.9574 101.374 31.4699C101.83 31.632 101.829 31.9574 101.829 32.1195H101.83ZM46.8931 31.957L46.583 31.632L47.0493 31.4699C46.8931 31.632 47.0493 31.7924 46.8931 31.957ZM116.567 31.7924C116.411 32.1195 115.8 31.7928 115.646 32.4343C115.49 32.4343 115.334 32.4343 115.334 32.2827C115.646 32.2827 115.646 31.9574 115.8 31.7928L115.801 31.632C116.101 31.632 116.266 31.7924 116.567 31.7924ZM74.2097 31.957V31.7924H74.5205L74.2097 31.957ZM115.031 32.2827C114.564 32.4343 114.265 32.5989 113.954 32.9218C113.799 33.2492 113.954 33.4013 114.109 33.5564H114.265C113.799 33.7262 113.188 34.0452 112.574 33.8887L114.564 31.957C114.72 32.1195 114.875 32.2827 115.03 32.2827H115.031ZM69.4515 32.1195C69.2991 32.5989 69.4515 33.085 69.9087 33.2496C70.2191 33.0846 70.6783 33.085 70.6783 32.5989C70.5287 32.5989 70.6783 32.4343 70.5287 32.2827C70.6783 32.5989 70.9873 32.9218 70.9873 33.2496C70.6783 33.4013 70.2191 32.9218 69.9087 33.4013C69.6084 33.7262 69.9087 33.8887 69.6084 34.206C69.2991 33.2492 68.3772 34.5331 68.0667 33.4013C68.2282 32.9218 68.6865 32.5989 68.9867 32.1195H69.4515ZM80.4995 32.5989C80.6586 32.7597 80.351 32.5989 80.1885 32.5989L80.3513 32.2827C80.3513 32.4343 80.3512 32.5989 80.4995 32.5989ZM100.453 32.2827V32.1195H100.76V32.2827H100.453ZM81.5795 32.4343C81.5795 32.5989 81.5795 32.7597 81.5795 32.7597H81.2692C81.4205 32.7597 81.4205 32.4343 81.5795 32.4343ZM59.3255 32.9218C58.5531 33.0846 58.8628 34.856 57.7929 33.7266L57.4839 33.4013C58.0956 33.4013 57.637 32.7597 58.0956 32.5989C58.5531 32.5989 58.8628 32.9218 59.3255 32.9218ZM91.8615 32.9218C91.5507 33.0846 91.3922 32.7597 91.0849 32.5989C91.3922 32.5989 91.703 32.5989 91.8615 32.9218ZM93.3935 32.9218H92.9277C93.0827 32.9218 93.3935 32.7597 93.3935 32.9218ZM107.198 33.4013C107.198 33.7262 106.595 34.0452 106.439 34.3706C106.129 34.206 105.666 33.7266 105.363 34.206L105.208 34.3706C105.208 34.0452 105.055 33.7266 104.753 33.7266C104.897 33.2492 105.363 34.0452 105.666 33.7266C105.666 32.9218 106.439 33.2496 106.743 32.9218C106.895 32.9218 107.198 33.085 107.198 33.4013ZM73.5884 33.5564C73.8987 33.5564 74.3649 32.9218 74.6684 33.5564L74.979 33.4013C74.979 33.5564 74.979 33.7266 75.1307 33.7266C74.6684 33.7262 74.3649 34.0452 74.0577 34.206C74.0577 33.4013 72.6771 33.8887 72.5202 33.085C72.9795 33.0846 73.1399 33.7266 73.5884 33.5564ZM53.957 33.7262C53.8039 33.4013 53.6404 33.4013 53.8036 33.085L53.957 33.7262ZM123.16 33.5564C122.856 33.7262 122.546 33.8887 122.239 33.7266C121.935 33.7262 122.091 33.4013 122.091 33.085C122.239 33.4013 123.012 33.7266 123.16 33.5564ZM116.715 34.206C116.878 34.5327 117.332 34.5331 117.635 34.6858C115.646 36.4669 112.877 35.979 110.428 35.6523C110.577 35.1725 111.498 35.4986 111.967 35.1729C113.188 35.0125 114.413 34.856 115.334 34.206C115.49 34.5327 115.646 34.6858 115.956 34.856C116.266 35.0125 116.411 34.5331 116.567 34.206C116.714 33.8887 116.266 33.5564 116.567 33.2496C116.877 33.4013 116.266 33.8887 116.715 34.206ZM127.77 33.2492C127.77 33.4013 127.77 33.4013 127.77 33.4013H127.459C127.459 33.4013 127.615 33.2492 127.77 33.2492ZM130.681 33.7262C130.371 33.7262 130.371 33.4013 130.371 33.2496C130.681 33.2492 130.53 33.5561 130.681 33.7262ZM57.174 34.3706C57.0167 34.6855 56.5616 35.0125 56.8716 35.4986C57.0167 35.8173 57.3266 35.8173 57.637 35.6523L57.9387 35.3354C58.2487 35.6523 57.9387 36.4669 58.7062 36.4669L59.0162 36.3023C59.0162 36.6193 59.0162 36.9449 59.3255 37.099C59.6278 37.099 60.0864 37.099 60.2395 36.6193C61.1639 37.4257 62.7052 38.0663 63.9272 38.3996C61.4747 38.0659 59.0162 37.099 56.2519 36.6193C55.4844 35.979 54.1052 35.1729 54.1052 33.8887C55.0255 34.856 54.8728 32.9218 55.7944 33.4013C56.2519 33.7262 56.7168 34.0452 57.174 34.3706ZM44.8921 34.3706C45.2039 34.206 45.8142 34.6858 46.2804 34.206C46.583 34.206 46.7354 35.4986 47.5051 35.0125C47.6595 35.0125 47.813 34.5331 48.124 34.6858L49.1918 35.4982L44.1323 35.1725C43.3654 34.856 42.5909 34.206 41.9806 33.7266C42.4455 33.5564 42.9027 34.0452 43.365 33.5564C43.6695 33.5564 43.9792 33.5564 44.2816 33.4013C44.2816 33.8887 44.2816 34.5331 44.8921 34.3706ZM66.0763 33.8887C65.7739 34.0452 65.3067 34.3706 64.9971 34.0452C65.4633 33.7262 65.6167 33.5564 66.0763 33.8887ZM126.534 34.0452L125.461 33.8887C125.772 33.7262 126.382 33.4013 126.534 34.0452ZM142.806 33.7262C142.806 33.8887 142.806 33.8887 142.806 34.0452L142.651 33.7262H142.806ZM64.3871 33.8887C64.3871 33.8887 64.2298 34.206 64.0772 34.0452L63.9272 33.8887C63.9272 33.7262 64.2302 33.8887 64.3871 33.8887ZM104.138 33.8887C103.824 34.206 103.976 34.6858 104.287 35.0125C104.442 35.1725 104.593 35.1729 104.897 35.0125L105.056 34.856V35.1725C104.442 35.4982 103.528 34.5331 103.062 35.4986C103.217 35.8173 103.365 35.979 103.824 35.979L98.7626 38.0659C99.3727 37.4257 99.9873 36.3023 100.908 36.4669C101.374 36.1422 101.829 37.2692 102.14 36.3023C102.14 35.8173 101.526 35.6523 101.219 35.1729C101.83 35.1725 102.899 35.8173 103.217 34.856C103.217 34.6855 103.365 34.5331 103.062 34.3706C103.217 34.0452 103.672 33.8887 104.138 33.8887ZM125.461 35.8173C125.772 35.8173 126.071 35.4986 126.382 35.4986C126.234 36.3023 125.313 36.3023 125.002 36.7814L121.628 36.3023C122.239 35.3354 123.778 35.1729 124.392 34.206L125.002 34.0452C125.313 34.3706 124.546 35.4986 125.461 35.8173ZM138.807 34.206V34.6855L138.048 34.3706L138.204 34.0452C138.359 34.5327 138.662 33.7266 138.807 34.206ZM91.2407 34.6855L90.4712 34.856C90.4712 34.5327 90.6262 34.3706 90.7811 34.0452C91.2407 34.0452 91.0849 34.5327 91.2407 34.6855ZM119.945 34.0452C119.945 34.206 119.944 34.206 119.944 34.206H119.789C119.634 34.0452 119.944 34.0452 119.944 34.0452H119.945ZM69.9087 37.2692C68.0671 38.3996 66.3856 36.7814 65.1543 35.8173C64.9971 35.6523 64.9971 35.6523 64.9971 35.4986C65.6167 35.0125 66.3856 36.1426 66.5387 35.0125C66.6956 34.6855 66.5387 34.5331 66.3856 34.206L68.6868 35.4982L69.9087 37.2692ZM54.7158 36.3023C53.1839 36.3023 51.9578 35.4986 50.7296 34.6858C51.0358 34.5327 51.8047 34.856 52.2615 34.5331C53.4935 33.8887 53.8036 35.8173 54.7155 36.1426L54.7158 36.3023ZM120.71 35.0125C120.71 35.1725 120.866 35.0125 120.866 35.1729C120.248 36.1422 119.175 36.7814 117.791 36.6193C117.488 36.4669 117.022 36.6193 116.715 36.4669C117.635 36.3023 118.401 35.8173 119.022 35.1729C119.323 35.4982 119.633 35.4986 119.944 35.4986C120.248 35.1725 120.4 35.0125 120.4 34.3706C120.4 34.6855 120.4 35.0125 120.71 35.0125ZM107.809 34.5327L107.664 34.856L107.516 34.6855L107.809 34.5327ZM87.559 35.1725C86.4894 35.4982 86.0236 36.7814 84.7989 36.9449C84.7989 36.4669 84.6396 35.979 84.7989 35.4986C85.1023 35.8173 85.2574 35.6523 85.7129 35.979C86.0236 35.4982 86.7894 35.1729 87.0997 34.856C87.2518 35.0125 87.559 35.0122 87.559 35.1725ZM132.373 35.1725C132.524 35.4982 133.294 35.4986 132.832 35.979C131.148 37.099 128.994 37.2692 126.993 36.9449C127.304 36.4669 127.77 36.1426 128.225 35.979C128.225 36.3023 128.536 36.4669 128.692 36.4669C129.147 36.3023 129.76 35.979 130.223 36.1426C130.371 36.4669 130.836 36.6193 131.296 36.6193C131.758 36.3023 131.296 35.4986 131.758 35.1729C131.758 35.3354 132.217 35.3351 132.373 35.1725ZM37.6799 36.4669C36.3015 37.2692 34.7675 36.4669 33.3883 36.1426C33.6986 35.1725 34.0003 36.3023 34.6203 35.979C34.7675 35.6523 34.9219 35.4986 34.7675 35.1729C35.846 35.3354 36.7642 35.979 37.6799 36.4669ZM82.5012 37.099L80.3513 35.3354C80.6586 35.4982 80.9655 35.4986 81.2692 35.4986C81.5795 34.856 82.035 35.4986 82.3384 35.4986L82.5012 37.099ZM139.118 35.979C138.663 36.7814 137.896 36.1426 137.282 36.3023C136.051 36.6193 134.526 38.7075 133.449 36.9449C134.826 35.979 136.051 34.6858 138.048 35.4986L139.118 35.979ZM76.5109 36.3023C76.5109 36.4669 76.6661 36.4669 76.6661 36.4669C76.9699 36.3023 77.4323 36.4669 77.4323 36.1426V35.8173L80.3513 38.0659C77.4323 37.2692 74.2094 36.7814 70.9873 37.099L69.9087 35.8173C70.5287 35.6523 70.376 36.9449 71.1407 36.3023C71.608 35.3354 72.8222 36.1426 73.5884 35.6523C73.5884 35.979 73.747 36.3023 74.0577 36.6193C74.5205 36.4669 75.2789 36.6193 75.4414 35.979V35.6523C75.9004 35.8173 76.0521 36.3023 76.5109 36.3023ZM98.6148 35.8173C98.3039 35.979 97.9931 35.8173 97.8408 36.3023C97.6929 36.6193 97.8408 36.7814 97.9931 37.099C97.9931 37.099 98.1516 37.099 98.1516 36.9449C97.6929 39.3581 94.9255 37.9117 93.5414 38.0663L92.9277 38.0659L93.5414 37.4257C93.8522 37.9117 94.4633 37.9117 94.7706 38.0663C95.2364 37.9117 95.3842 37.4257 95.5401 37.099H96.3052C96.3052 37.4257 96.4611 37.9117 96.6161 38.0663C97.0721 38.0659 97.382 38.0663 97.5379 37.5865V36.6193C97.2271 35.979 98.1516 35.4986 98.6148 35.8173ZM63.7755 35.8173C63.7755 36.1422 63.7755 36.4669 64.2298 36.4669C64.0772 36.6193 64.2298 36.6193 64.2298 36.6193L64.5402 36.4669L65.4633 37.4257C64.6971 37.2692 63.7755 37.2692 63.008 36.9449C63.4651 36.6193 63.1624 35.6523 63.7755 35.8173ZM17.8927 36.3023C17.4265 36.3023 17.1263 36.1426 16.9693 35.979C17.2734 36.1422 17.7281 35.8173 17.8927 36.3023ZM20.0391 36.3023H19.7277L19.8842 36.1422C19.8842 36.3023 19.8842 36.3023 20.0391 36.3023ZM140.505 36.4669C140.505 36.6193 140.194 36.9449 140.05 37.099L139.584 36.1422C139.887 36.1422 140.05 36.6193 140.505 36.4669ZM62.0859 36.3023L61.7836 36.1422C61.9294 36.3023 62.0859 36.1426 62.0859 36.3023ZM15.4273 36.6193C14.8167 36.6193 13.7461 37.9117 13.4376 36.6193C12.8185 36.3023 12.3635 37.099 12.2138 36.7814C11.7469 36.6193 11.7469 37.2692 11.4414 37.2692L11.2922 36.6193C12.6714 36.1422 14.0582 36.1426 15.4273 36.6193ZM21.8848 36.7814L21.2655 36.6193L21.573 36.3023C21.573 36.4669 21.573 36.6193 21.8848 36.7814ZM88.6355 37.4257C89.2491 37.4257 90.0152 37.7486 90.4712 37.099C91.0849 37.099 91.5507 37.9117 91.8615 37.099L92.3131 37.4257L91.703 37.9117L87.4035 37.5865C87.559 37.2692 88.3248 36.7814 88.6355 37.4257ZM22.3406 38.0659C21.1083 38.5558 19.5746 37.9117 18.6522 37.099C19.8842 37.099 21.2651 37.5861 22.3406 38.0659ZM77.4323 39.0331C76.0521 39.6743 73.747 39.8389 72.3665 38.5558C74.2098 38.5558 75.9004 38.3996 77.4323 39.0331ZM89.5529 39.1946C88.6355 39.8389 86.9449 39.8389 86.0236 39.5226C86.9449 38.7075 88.3248 39.1946 89.5529 39.1946ZM86.327 54.6526C84.6396 55.4552 83.2667 53.3687 83.8811 51.7585C84.6396 52.8795 85.2578 54.4904 86.327 54.6526ZM79.2783 51.9127C78.3536 52.5542 78.5018 53.1969 76.6661 53.5211C77.4323 53.1969 77.4325 52.2394 79.2783 51.9127ZM98.7626 54.9675C98.4518 55.7823 97.8408 55.7823 97.2271 56.0996C96.7719 54.3259 95.3842 53.5211 94.3154 53.1969C95.5401 52.5542 96.6161 53.5211 97.9931 53.5211C98.3039 54.0009 98.7626 54.3259 98.7626 54.9675ZM103.217 54.0009C103.217 54.1655 103.528 54.3259 103.528 54.6526C102.14 54.1655 100.605 54.0009 99.2249 53.1969C100.605 53.3687 101.829 53.3687 103.217 54.0009ZM95.3842 58.5124C94.9255 58.3479 95.5401 58.0316 95.5401 57.5501H95.6951C95.8474 57.8688 95.5401 58.3479 95.3842 58.5124ZM85.5682 47.892V41.7716C85.5682 41.129 86.1822 41.294 86.4894 41.129C88.791 41.4568 89.4015 40.4896 91.2407 39.3581C95.2364 40.6437 99.8386 40.325 103.062 37.5865C104.593 37.099 106.439 36.7814 107.975 37.099C108.889 37.2692 109.81 38.2305 110.428 39.0331C111.353 39.6743 109.655 40.325 110.277 41.129C110.429 41.6085 110.887 41.9362 111.19 41.7716C110.887 41.4568 110.428 41.129 110.576 40.644C111.809 39.0331 113.499 41.9362 114.72 40.9694C113.647 40.4896 112.726 40.325 111.809 39.6743C111.657 38.7075 110.732 37.9117 109.966 37.099C112.726 37.2692 115.646 37.9117 118.401 37.9117C120.555 37.4257 122.856 38.0663 124.236 39.8389C125.461 40.8044 127.304 41.4568 128.836 40.644C128.994 40.4896 129.76 40.325 129.457 39.8389C128.836 40.1618 128.225 40.644 127.615 40.644C125.923 40.4896 124.546 39.0331 123.778 37.9117C125.772 38.0659 127.925 38.5558 130.071 38.2305C130.836 37.9117 131.907 38.0663 132.524 37.4257C133.905 40.325 137.127 36.6193 137.593 37.4257C137.282 38.0659 137.896 38.2305 138.203 38.5558C138.973 38.0659 138.973 39.1946 139.887 39.0331C140.194 38.0659 140.964 39.0331 141.274 39.5226C141.575 39.8389 142.195 39.8389 142.506 39.8389L142.962 39.1946C143.428 39.3581 143.428 39.8389 143.883 39.8389C144.187 39.5226 144.186 39.0331 144.186 38.7075C144.642 39.0331 145.263 39.0331 145.567 39.6743C145.877 40 146.184 39.6743 146.34 39.3581C147.099 38.5558 148.33 39.3581 148.634 38.3996C148.796 37.5865 148.02 37.9117 147.719 37.5865C149.407 37.099 151.402 37.4257 152.929 38.0663C154.165 37.7486 154.469 39.3581 155.541 38.88C156.156 39.0331 156.459 38.7075 156.459 39.3581C157.084 39.5226 157.232 38.88 157.699 38.88C157.699 39.0331 157.699 39.5226 157.847 39.6743C158.768 40 158.457 38.88 159.223 38.88C159.223 39.0331 159.379 39.0331 159.379 39.3581C160 40.325 160.61 38.7075 161.221 38.7075C161.069 39.6743 161.983 39.1946 162.45 39.3581C162.757 39.1946 163.06 39.0331 163.06 38.5558L163.522 38.88C163.834 38.7075 164.133 38.5558 164.133 38.2305C163.834 37.9117 163.522 37.4257 163.211 37.7486C162.912 37.5865 162.912 37.2692 162.756 37.2692C161.68 36.9445 161.532 38.0663 160.911 36.7814C160.455 36.4669 159.379 37.9117 159.534 36.3023C159.223 36.3023 158.92 36.3023 158.768 36.6193C158.147 36.4669 157.388 36.1426 156.922 36.6193C156.778 36.4669 156.311 36.4669 156.156 36.4669C156.007 36.4669 155.852 36.6193 155.852 36.9449C155.087 36.4669 154.32 37.9117 153.544 37.2692C152.012 37.099 150.628 36.4669 149.1 36.4669C149.407 36.3023 149.555 35.8173 149.866 35.4986C150.177 35.979 150.787 35.4986 150.938 35.979C151.402 36.3023 151.553 35.8173 151.708 35.4986C152.012 35.4982 152.622 35.8173 152.478 35.979C150.939 35.979 153.399 37.9117 152.929 35.6523C153.855 35.0125 153.544 36.1426 154.32 36.1426C154.469 35.8173 154.621 35.8173 154.621 35.4986C154.775 35.6523 154.931 35.979 155.086 35.979C155.541 35.4982 155.701 36.3023 156.156 36.3023C156.459 36.1422 156.459 35.4986 156.922 35.1729C157.084 35.4982 157.388 35.979 157.847 35.6523C158.613 35.1725 157.699 34.5331 158.309 33.8887C158.309 33.5564 157.847 33.4013 157.536 33.5564C157.233 33.7262 156.922 34.0452 156.922 34.3706C156.311 34.206 156.459 33.085 155.541 33.7266C155.39 33.4013 154.775 33.5564 154.931 33.085C154.775 32.9218 154.469 32.9218 154.165 32.9218L154.01 32.7597C153.699 32.5989 153.24 32.7597 153.089 33.085L152.93 32.9218C152.785 32.5989 152.478 32.9218 152.319 32.7597V32.4343C152.319 32.1195 152.012 31.9574 151.708 31.9574C151.249 32.1195 151.249 32.5989 151.249 32.9218C151.402 33.2492 151.708 33.4013 151.864 33.2496C151.553 34.856 151.098 32.4343 150.321 33.4013C149.866 33.7262 150.321 34.0452 150.177 34.3706L149.711 34.206C149.251 34.206 149.251 34.6858 149.251 35.0125C148.02 35.979 146.951 37.099 145.567 37.099C145.567 36.9445 145.419 36.7814 145.567 36.6193C146.029 36.4669 146.488 36.1426 146.029 35.8173H145.719C145.567 35.979 145.419 36.3023 145.419 36.6193C145.419 36.3023 145.108 36.4669 144.959 36.3023C144.642 36.9445 144.186 36.3023 143.72 36.6193C143.576 36.6193 142.961 36.7814 143.109 36.3023C142.806 36.1422 142.348 36.3023 142.037 36.3023C141.43 35.3354 139.273 35.6523 140.05 34.206C140.505 33.7262 140.809 33.8887 141.274 33.8887C141.575 34.0452 141.429 34.5331 141.575 34.6858C141.885 35.1725 142.037 35.0125 142.506 35.1729C142.651 35.0125 142.961 34.856 142.961 34.6858L143.265 34.856C143.265 34.6855 143.72 34.856 143.72 34.5331C144.028 34.5327 144.497 34.206 144.797 34.6858C145.108 35.0125 145.878 34.3706 146.184 34.856C146.488 35.0125 146.64 34.6858 146.798 34.6858C147.099 34.206 146.64 34.0452 146.488 34.0452C145.567 34.5327 145.419 33.085 144.797 33.085C143.883 33.4013 144.337 31.9574 143.428 31.9574C142.962 31.7924 142.806 32.1195 142.506 32.4343C142.196 32.1195 142.348 31.4699 141.73 31.632C141.274 32.2827 140.809 31.7928 140.194 31.632C139.887 31.7924 139.739 32.1195 139.584 32.2827L138.663 31.4699C138.663 30.9877 138.807 30.8259 138.807 30.3465C139.273 30.3461 139.117 30.0208 139.273 29.8586C139.739 30.502 140.194 29.5348 140.35 29.3793C140.654 29.7062 141.119 29.5348 141.274 29.2185C141.43 28.8942 142.195 28.4123 141.575 28.0975C141.119 27.6073 140.809 28.739 140.505 28.0975C140.654 27.9325 140.809 27.6072 140.809 27.2927C140.505 27.1306 140.35 26.9657 140.05 27.1306C139.887 28.0971 138.973 27.4472 138.359 27.6072C137.897 27.6072 137.896 28.2502 137.593 27.9329C137.127 27.7722 136.516 27.9329 136.051 28.0975C135.747 28.2502 135.895 28.8942 135.895 29.0619C135.437 28.7387 135.285 28.8942 134.981 29.2185C134.826 29.0619 134.67 28.739 134.526 28.5745C134.06 28.2502 133.904 28.8942 133.449 28.8942C133.45 29.0619 133.449 29.2185 133.294 29.2185C132.983 29.5348 132.373 29.3793 132.524 30.1854C132.832 31.1526 133.294 30.1854 133.605 30.8259C133.294 31.957 131.907 31.9574 130.985 32.5989L130.836 31.957C131.148 31.632 130.836 31.313 130.836 31.1526C130.53 30.8259 130.223 30.9877 129.916 31.1526C129.302 32.2827 128.994 30.6637 128.381 30.6637C127.926 30.8259 127.459 30.3465 127.148 30.6637C126.993 30.502 127.148 30.1854 127.148 30.0208C127.459 29.7062 127.77 30.0208 128.069 29.7063L128.225 29.8586C128.836 30.1854 128.836 29.5348 129.146 29.2185C129.302 29.0619 129.76 29.0619 129.916 29.2185C130.985 29.5348 130.223 28.8942 130.985 28.8942C131.296 29.2185 131.603 28.8942 131.758 28.5745C132.217 27.1306 130.53 28.5744 130.371 27.6072C129.916 27.2927 129.76 27.9329 129.457 27.7722C129.147 27.2927 129.613 26.9657 129.302 26.6425C128.836 26.4807 128.692 26.8053 128.536 27.1306C128.225 26.9657 128.381 26.4807 127.925 26.4807C127.304 27.1305 126.234 26.1617 125.623 27.1306C125.923 25.1962 124.392 27.1306 123.929 26.6425C123.467 26.8053 123.929 27.6073 123.315 27.4472C122.856 28.4123 122.091 27.2927 121.469 27.7722C121.469 27.4472 121.469 27.1306 121.165 27.1306C120.71 26.9657 120.4 27.2927 120.555 27.7722C120.4 28.7387 121.628 27.7722 121.628 28.4123C122.091 28.4123 122.239 28.8942 122.701 28.5745C122.856 28.7387 123.315 28.5745 123.467 28.8942L123.778 28.7387C123.929 29.7062 123.16 28.739 122.701 29.0619C122.546 29.0619 122.546 29.2185 122.401 29.2185C122.091 29.5348 121.787 29.8586 121.324 29.7063C121.325 29.5348 121.165 29.3793 121.165 29.2185H120.248C120.1 29.3789 119.789 29.5348 119.789 29.8586L119.478 29.3789C119.478 29.3789 119.478 29.3793 119.478 29.2185C119.634 28.8942 119.478 28.4123 120.099 28.4123C120.248 28.0971 120.099 27.9329 120.099 27.4472C119.634 31.313 103.976 27.9329 115.8 27.6072C115.801 27.6072 115.8 27.7722 115.8 27.9329C116.101 28.2502 116.1 28.5744 116.567 28.4123C116.877 28.2502 117.022 27.6072 117.177 27.6072C117.791 27.6072 118.401 27.7722 118.556 26.9657C118.557 26.8053 118.098 26.6424 118.401 26.4807C118.401 26.4807 118.556 26.4807 118.556 26.6425C119.023 27.7722 119.789 26.1617 120.099 26.8053C120.71 27.1306 120.866 25.8366 121.165 26.6425C121.325 26.6425 121.628 26.8053 121.787 26.6425C122.091 26.3255 122.701 26.1617 122.401 25.5194C121.935 25.1961 121.324 25.8366 120.866 25.8366L120.71 25.1961C119.945 25.1961 119.323 23.9127 118.868 25.1961C118.557 25.034 118.868 24.7083 118.712 24.3903C118.712 24.065 118.401 23.4234 117.946 23.7411C117.332 23.27 116.877 24.7083 115.956 23.27C115.186 23.4234 115.49 24.2289 115.956 24.3903C115.186 23.7411 113.799 25.1961 113.188 24.2289C112.726 24.5524 111.967 24.7083 111.657 25.3489C111.353 25.3489 111.043 25.3489 111.043 25.6749C110.429 25.5194 109.81 25.5194 109.196 25.5194C108.43 26.8053 110.277 26.3255 110.428 27.2927C110.732 27.2927 110.887 27.2927 111.19 27.1306C111.19 27.2927 111.353 27.4472 111.498 27.6072L111.353 27.7722C111.19 27.7722 110.887 28.0975 110.732 27.9329C109.356 28.0971 107.808 27.9329 106.595 28.4123C106.439 27.9325 105.519 28.2502 105.818 27.6072C107.365 26.3255 106.439 27.7722 107.365 27.9329C107.809 27.6073 107.808 27.2927 107.808 26.9657C108.127 27.2927 109.045 28.0975 108.889 26.8053C108.275 26.8053 109.045 25.8366 108.275 25.9988C106.743 26.3255 106.895 24.7083 104.753 24.3903C104.287 24.708 103.528 24.5524 103.528 25.3489C102.899 25.6749 102.451 25.034 101.829 25.1961C100.142 24.5524 100.142 26.4807 98.7626 26.8053C98.4518 26.6425 98.4518 26.1617 98.303 25.8366C97.0721 25.3489 98.1516 26.9657 97.3821 27.2927C97.2271 26.9657 96.6161 27.2927 96.7719 26.8053C96.7719 26.4807 96.6161 26.1617 96.3052 25.9988C96.3052 25.6749 96.6161 25.3489 96.1538 25.034C96.6161 25.034 97.0721 25.3489 97.3821 25.3489C97.9931 24.5524 99.3727 26.1617 99.3727 24.5524C99.5286 24.5524 100.142 25.5194 100.453 24.7083C100.76 24.2289 100.142 24.8702 100.294 24.3903C99.3728 23.7411 99.2249 24.3903 99.6836 23.0981C99.5286 22.7826 99.3727 22.9454 98.9176 22.9454C98.6148 23.27 98.9176 23.7411 98.9176 24.065C97.5379 25.5194 98.7626 23.27 97.6929 22.9454C97.3821 22.2947 96.3052 23.9127 96.6161 22.6212C96.1538 20.8484 95.5401 24.065 95.6951 23.27C94.9255 23.4234 94.9255 22.7826 94.1595 22.6212C93.5414 23.4234 92.4726 23.0981 91.5507 23.27C90.6262 23.27 90.3224 24.065 89.5529 23.9127L89.4015 22.9454C89.0906 22.9454 88.7906 22.9454 88.6355 23.0981C89.4015 24.708 88.6355 24.2289 87.7145 24.3903C87.2518 24.3903 85.8789 22.1389 86.0236 23.7411C86.6376 24.065 86.4894 25.034 87.2518 24.8702C87.1001 25.3489 86.0236 25.1961 86.0236 24.5524C85.4129 24.2289 85.1019 25.1961 84.7989 24.8702C84.7989 24.065 84.0327 23.9127 83.8811 23.0981C82.8007 22.7826 83.5704 24.065 82.6487 24.065L82.8007 23.27C82.3384 22.1389 81.5795 23.0981 81.4205 23.5856C81.2692 23.4234 80.9655 23.4234 80.9655 23.27C80.0445 23.9127 78.8121 24.065 77.8908 23.5856C78.1983 24.5524 77.2806 24.5524 77.1216 25.3489C77.2806 25.8366 77.4323 26.1617 78.0425 26.1617C78.3536 26.1617 78.3532 25.6749 78.3532 25.5194C78.6566 25.5194 79.1228 25.5194 79.278 25.8366C79.7338 25.6749 80.351 26.4807 80.6586 25.8366L81.5795 26.6425C81.4205 27.4472 80.351 26.9657 80.1885 27.9329C79.7338 28.5741 79.278 27.6072 78.5018 27.7722C78.6566 27.4472 79.7335 27.4472 79.4228 26.8053C79.2783 26.4807 79.1228 26.1617 78.6566 26.1617C78.3536 26.1617 78.3532 26.4807 78.1983 26.6425C78.1983 26.6425 78.0425 26.6424 78.0425 26.4807C77.8908 26.6424 77.5874 26.4807 77.4323 26.3255C76.8108 26.9657 76.6661 25.8366 76.1999 25.8366C75.7414 25.9987 75.2789 25.9987 75.1307 26.4807L74.8201 26.1617C74.3649 26.1617 73.8987 26.3255 73.747 26.8053C73.2882 26.6425 72.9795 26.3255 72.6771 25.9988L73.1399 25.5194C73.7474 26.9657 74.82 25.1961 75.4414 25.3489C75.2789 24.8702 76.0521 24.8702 76.0521 24.3903L76.3558 25.3489C76.5109 25.1961 76.6661 25.3489 76.9696 25.1961C76.9699 25.034 76.9696 24.8702 76.9696 24.7083C76.5109 23.7411 74.979 24.5524 74.6684 23.4234C74.8201 23.5856 72.0627 25.3489 73.5884 22.9454C72.5202 21.6525 71.9003 23.7411 70.5287 23.5856C70.2191 23.4234 70.6783 23.4234 70.5287 23.0981C69.9087 22.6212 68.9867 22.7826 68.2282 22.6212C67.7648 23.27 67.1503 23.4234 66.5387 23.27C66.2287 23.27 65.7739 23.0981 65.4633 23.5856L65.1543 23.4234C64.5402 23.4234 64.2298 25.034 63.3179 24.2289C61.6263 24.5524 63.3179 25.5194 63.9272 25.6749C64.2302 26.1617 63.4651 25.8366 63.3179 26.1617C63.3179 26.6424 62.7052 26.8053 63.008 27.2927H61.9294C61.1639 27.2927 60.7068 28.0975 60.0864 27.4472C59.6278 26.9657 59.4748 28.2502 59.1644 27.2927C58.7062 26.8053 58.406 27.6073 58.0956 27.4472C58.0956 27.2927 58.0956 27.2927 58.2487 27.1306C58.2487 26.8053 58.0956 26.4807 57.7929 26.1617C57.3266 26.1617 57.1736 26.6425 56.8716 27.1306C56.8716 26.9657 56.5616 26.9657 56.405 26.9657C56.2519 27.2927 55.9478 26.8053 55.6375 26.8053C54.8728 26.4807 54.2535 27.1306 54.1052 27.9329C53.957 27.6073 53.6404 27.2927 53.4935 27.2927C52.113 26.8053 53.0263 28.2502 52.4146 28.739C52.113 28.8942 51.9578 28.5744 51.8047 28.4123C51.3381 28.2502 51.1923 28.8942 50.8827 28.8942C50.7296 28.8942 50.7296 28.739 50.7296 28.5745C50.4165 28.5741 50.1138 28.4123 49.9667 28.8942C49.9667 28.8942 49.8055 29.0619 49.8055 29.2185C49.8055 29.5348 49.9667 29.7063 50.1138 29.7063C50.4165 30.0205 50.7296 29.5348 51.1923 29.3793C51.4926 29.7062 51.6471 30.3465 52.113 30.3465C52.4146 30.1854 52.4146 29.8586 52.5712 29.7063L53.0263 29.8586C53.6404 29.0619 54.1052 30.3465 54.7155 30.3465C54.8728 30.3461 55.0255 30.1854 55.1751 30.0208C55.6375 30.502 56.8716 30.1854 56.7164 31.1526C56.0975 30.8259 55.3285 30.502 54.5624 30.6637C54.4141 30.8259 54.4142 31.1526 54.2535 31.313L53.1839 30.9877C52.726 32.1195 52.113 30.502 51.3378 31.1526C50.5811 30.8259 49.9667 30.0208 49.5035 29.2185C49.3407 29.0619 49.1918 28.739 49.1918 28.5745L49.3407 28.5741C49.8055 28.7387 50.2631 28.2502 50.4162 27.9329L51.0358 28.0971C51.1927 27.9325 51.4926 27.9329 51.4926 27.6072C51.6471 27.6072 52.113 27.4472 51.9578 27.1306C51.9582 26.8053 51.6471 26.9657 51.4926 26.9657C51.3382 26.3255 50.5811 27.2927 50.4162 26.6425C49.8055 26.8053 50.1138 25.8366 49.5035 26.1617C48.8915 26.9657 47.813 25.6749 47.0489 26.6425C46.8931 26.4807 46.7354 26.1617 46.4258 26.3255C46.583 27.4472 44.5919 26.8053 44.8921 27.9329C45.6662 28.0971 46.1256 28.0975 46.5827 27.7722L46.7354 27.9325C47.0493 28.2502 47.3503 28.0975 47.5051 27.9329C47.813 28.2502 47.9696 28.739 48.4267 28.739C48.5815 28.8942 48.5815 29.0619 48.7347 29.2185C49.1918 30.0205 49.9667 30.502 50.4162 31.313L50.2631 31.7924C49.9667 31.7924 49.8055 31.1526 49.3407 31.4699C49.1918 31.7924 49.046 31.4699 48.7347 31.4699C48.8915 31.313 49.046 31.1526 49.046 30.9877C48.7347 30.3461 48.7347 29.3793 47.813 29.3793C47.6595 29.5348 47.5051 29.5348 47.3503 29.2185C47.0493 29.0619 46.7354 28.4123 46.2804 28.8942C46.1259 28.5741 45.8142 28.5745 45.6662 28.5745C45.3583 28.5741 45.3583 28.8942 45.3583 29.0619C45.2039 28.5741 44.8921 28.5744 44.5919 28.4123C43.6695 28.7387 44.1323 29.8586 43.2106 29.2185C43.0558 29.2185 42.7454 29.0619 42.5909 29.0619C42.2903 29.0619 42.1341 29.2185 41.9806 29.2185C41.8276 29.7062 41.8273 30.3465 41.368 30.502C41.068 30.3461 40.755 29.8586 40.2915 30.0208C39.5306 30.6634 40.755 31.1526 40.2915 31.7928C40.1443 31.632 40.1443 31.4699 39.8326 31.4699C39.3695 31.7924 38.7575 31.4699 38.1472 31.7928C38.1472 32.9218 37.0683 31.9574 36.6098 32.4343C36.6101 32.5989 36.4567 32.9218 36.6098 33.085L37.0687 33.0846C37.2231 33.8887 38.602 33.4013 38.4534 34.3706C38.7575 34.3706 39.2223 34.5331 39.2223 34.0452C40.1443 33.5564 39.6798 34.856 40.6015 34.5331C41.368 33.7262 41.8273 35.3354 42.4455 35.4986C40.4487 35.6523 38.1472 35.8173 36.7642 34.206C35.846 33.0846 35.3791 31.4699 35.6892 30.0208C35.846 30.0205 35.9894 30.1854 35.9894 30.3465C36.4567 30.1854 37.379 30.3465 37.5317 29.8586L38.3003 30.0205C38.602 29.8586 38.7575 29.5348 38.7575 29.2185C38.911 29.0619 38.911 28.5744 39.0668 28.2502C39.0668 27.7722 38.3003 27.9329 37.9903 27.9329C37.6799 27.4472 37.0683 28.5744 36.9114 27.7722C36.6101 27.7722 36.1526 27.6073 35.9894 27.9329C35.9894 27.4472 35.2305 27.4472 35.3791 27.1306C34.4672 26.6425 34.4672 27.7722 33.843 28.2502C33.0779 28.7387 33.231 27.7722 32.6211 27.7722C32.3199 27.6072 32.156 28.4123 32.0014 28.2502C31.3975 28.4123 30.4755 27.7722 30.4755 28.8942C30.4755 29.5348 31.0795 29.0619 31.2423 29.2185C31.3975 29.3789 31.3975 29.3793 31.3975 29.7063C31.7068 30.502 32.6211 30.3465 33.231 30.6637C33.6986 30.6634 34.0003 30.502 34.1531 30.0208C34.6203 30.3461 34.7675 30.0208 35.2305 30.1854C35.0775 30.3461 35.0775 30.502 34.9219 30.502C34.3099 31.7924 35.0775 33.085 35.3791 34.0452C34.7675 34.206 34.3099 33.7266 33.843 33.8887C33.3883 33.8887 32.4666 34.206 32.0014 33.7266C31.7068 33.4013 31.3975 33.5564 31.0795 33.8887C30.6303 33.7262 30.0082 33.4013 29.7083 33.085V32.9218C30.1654 33.7262 31.0795 33.085 31.7068 33.4013H32.3198C33.2314 33.5564 32.156 32.2827 33.231 32.4343C33.2314 32.5989 33.3883 32.9218 33.6986 32.7597C34.0003 32.7597 34.3099 32.5989 34.1531 32.1195C34.1531 31.4699 33.231 31.7928 33.231 31.9574C33.0779 31.7924 33.231 31.313 32.9294 31.313C32.6211 31.313 32.4666 31.632 32.3195 31.9574C32.156 31.313 31.5467 31.313 31.5467 30.8259C31.2423 30.502 30.7851 30.6637 30.6303 30.9877C30.32 31.4699 30.1654 30.8259 29.8652 30.6637C28.7859 30.3461 28.1666 31.313 27.245 30.6637C26.6309 30.502 26.1751 30.9877 26.0203 31.4699C25.4086 32.1195 24.4862 31.4699 24.1763 30.9877C24.0273 30.8259 23.7194 30.9877 23.565 31.1526C23.4168 31.313 23.2542 31.632 23.565 31.9574C24.0273 32.5989 22.7974 32.7597 23.2542 33.4013L24.1766 33.5564C24.4866 33.4013 24.4862 33.085 24.6415 32.7597C24.7959 33.4013 25.0986 33.7266 25.7182 33.7266C26.0203 33.7262 26.4855 33.5564 26.3282 33.085C27.0971 34.0452 28.4763 33.085 29.089 34.0452C28.6294 34.0452 28.0191 33.5564 28.0191 34.3706C27.4067 34.5327 27.245 33.5564 26.4855 33.8887C26.4855 34.3706 26.1751 34.856 26.7954 35.1729C26.944 35.1725 27.245 35.0125 27.4067 35.0125C27.5543 35.4982 27.8657 35.6523 28.1666 35.6523C27.4067 36.1422 26.3282 36.6193 25.4086 37.099C24.4866 37.4257 23.4164 37.5865 22.3406 37.099C22.1854 37.099 22.1854 37.099 22.1854 36.9449C22.4951 36.7814 22.9509 36.7814 22.9509 36.3023C23.2546 36.6193 23.7194 36.1426 24.0273 36.4669C24.7959 36.3023 24.6415 35.1729 24.949 34.856C24.7959 34.3706 24.3294 34.206 24.0273 34.206L23.7194 35.0125C23.4168 35.0125 23.4164 34.3706 22.9509 34.206C22.4951 34.0452 22.6444 34.856 22.1854 34.6858C21.7199 34.856 21.4182 34.5331 21.573 34.0452C21.4186 33.7262 21.1083 33.5564 20.6497 33.7266C20.4963 34.206 19.8842 34.206 19.8842 34.6858C19.5746 34.6855 19.2639 34.6858 19.1174 34.3706C18.5054 34.856 18.5054 33.7266 17.7281 33.8887C17.4265 34.206 17.1263 33.7266 16.6631 34.0452C16.3493 34.6855 15.8943 35.0125 16.0473 35.6523C13.8954 35.4982 11.5935 35.1729 9.7599 36.4669L8.68276 35.6523C8.06694 36.1422 7.14493 34.6858 6.68254 35.8173C5.30336 35.8173 5.30336 37.099 4.38136 35.8173C4.38136 36.3023 3.62148 37.099 3.31148 36.4669C2.69182 36.1422 2.545 37.099 1.92499 36.4669C2.08191 37.5865 0.85721 37.099 0.544077 37.099C-0.218926 38.2305 1.32065 38.5558 2.08191 38.5558C2.545 38.3996 2.38948 37.4257 2.69182 37.9117C3.15839 38.2305 3.46074 38.7075 4.08039 39.0331C4.38136 38.88 4.69066 38.7075 4.69066 38.3996C4.993 39.3581 5.91501 38.3996 6.22536 39.1946C6.83737 39.1946 8.37067 38.5558 8.68276 39.6743C8.98372 39.8389 9.14586 39.6743 9.44576 39.3581C9.29264 38.7075 10.0623 38.5558 10.3678 38.2305C10.6819 38.88 11.1367 37.9117 11.2919 38.3996C12.0611 39.1946 12.9828 38.5558 13.7461 39.3581C14.2054 39.0331 14.8167 38.2305 15.284 39.1946C15.5842 39.0331 16.2035 39.0331 16.349 38.5558C16.2035 38.2305 16.349 37.5865 16.0473 37.099C16.5059 37.099 16.8159 36.9449 17.2734 37.2692C18.5054 38.2305 20.1862 39.6743 22.0285 39.0331C24.1766 38.0659 26.6309 37.7486 28.7859 36.6193C30.0082 36.3023 30.9302 36.6193 31.8522 37.099C33.2314 37.7486 34.6203 38.88 36.4567 38.3996L35.6895 39.1946C34.0003 40.4896 31.5467 40.1618 29.7083 40.4896C31.3975 41.129 33.843 40.8044 35.5423 40.1618C36.9114 38.5558 38.3003 37.5865 39.9891 37.099C43.6695 35.8173 48.124 36.3023 51.9578 37.099C53.0263 37.2692 54.1052 37.4257 55.1751 37.5865C55.6375 37.9117 55.0255 38.2305 54.8728 38.5558C53.6404 40.325 51.3378 39.6743 49.6566 39.1946C49.1918 39.0331 48.5815 38.88 48.124 38.88C48.8915 39.5226 49.8055 39.6743 50.5811 40.1618C50.4165 40.9694 49.3407 40.8044 48.8915 41.129C47.6595 41.6085 46.8927 40.4896 45.8142 40.4896C48.124 42.7386 50.7296 40.644 53.1836 40.325C54.5627 40.1618 55.4844 39.1946 56.8716 38.88C58.0956 37.9117 59.6275 39.0331 61.007 39.1946C64.3871 40.6437 67.7648 38.88 71.1407 38.5558L72.0627 39.3581C74.6684 41.9362 78.9676 39.0331 78.9676 41.129V48.2174C78.9676 49.6616 77.2806 49.9761 76.8108 50.1407C64.8498 53.0399 62.0856 53.1969 60.7068 55.7823C60.2395 56.9002 61.9293 58.0316 60.8598 58.8357C60.2395 59.3134 58.8628 59.1527 58.406 58.0316C57.9387 57.0648 59.1644 56.9002 59.1644 56.4222C58.7062 56.5853 58.2487 56.5853 57.9387 57.2189C57.3266 58.1855 57.637 58.6732 58.0956 58.9922C59.3255 60.2821 61.007 60.6097 62.239 59.1527C63.008 58.1855 61.7836 56.9002 62.0856 56.4222C63.1624 54.4904 65.6167 54.3259 67.9175 54.1655C66.5387 54.9675 64.5402 55.9347 64.2298 57.389C64.2302 57.8688 64.3868 58.3479 64.8498 58.8357C65.4632 59.4783 66.2287 59.4783 66.6956 58.9922C66.0763 58.6732 64.8498 58.3479 65.3067 57.2189C65.9194 56.0996 66.9882 55.7823 67.9175 55.2931C70.066 54.3259 72.0627 54.0009 74.0577 53.6857C74.0577 54.1655 73.747 54.3259 73.5884 54.6526C72.0627 54.8151 70.3759 55.4552 69.4515 57.2189C69.1423 57.7064 69.2991 58.6732 69.7563 58.9922C70.5287 59.6429 71.4448 59.8026 72.0627 58.8357C72.0627 58.3479 71.2879 58.6732 70.9873 58.5124C70.6783 58.5124 70.2191 58.0316 70.376 57.5501C70.8307 56.0996 72.2095 56.2596 73.1399 55.9347C72.8222 58.9919 75.4414 58.1857 76.5109 58.9922C76.5109 60.1195 75.5896 59.9592 75.1307 60.4449C75.5896 60.7639 75.9004 60.9326 76.5109 60.9326C77.1216 60.1195 77.5874 59.4783 77.4323 58.1857C76.6661 56.9002 75.4414 57.8688 74.5202 56.5853C74.3649 56.2596 74.5202 55.7823 74.5202 55.4552C76.0521 55.1324 77.4323 54.6526 78.8121 53.8465C78.8121 54.4904 78.6566 55.1324 78.9676 55.6101C80.0445 56.4222 81.5795 55.9347 81.8795 57.389C81.7242 57.7064 81.8795 58.1857 81.5795 58.3479C81.1137 58.9919 80.1885 58.5124 79.889 58.9922C80.3513 59.6429 81.2692 60.1195 81.7242 59.8026C82.035 59.4783 82.5008 59.1527 82.6487 58.5124C82.9566 58.1855 82.9562 57.2189 82.8007 56.9002C82.035 55.9347 81.2692 55.7823 80.4993 55.4552C79.7338 55.1324 80.0441 54.4904 80.0441 53.6857C80.6586 52.5542 81.4205 52.2394 82.1905 51.7585C82.035 53.6857 82.6487 55.1323 83.5704 56.4222C84.0327 56.7391 84.4913 57.2189 85.1019 56.9002C86.1826 55.7823 87.559 55.4552 88.9461 55.4552C89.2491 55.6101 89.4015 55.9347 89.4015 56.2596C88.6355 58.1855 86.6376 56.7391 85.5682 58.3479C85.5682 58.8357 85.5682 59.4783 85.8789 59.8026C86.6376 60.6097 88.0211 60.2821 88.6355 59.6429C88.1693 59.1527 87.7145 59.8026 87.0997 59.6429C86.7894 59.3134 86.4894 59.1527 86.4894 58.6732C87.4035 58.0316 88.4838 58.3479 89.7123 58.0316C90.3224 57.5501 90.4712 56.7391 90.937 56.0996L91.5507 56.9002C92.4726 58.3479 90.7811 58.8357 90.3224 59.6429C90.7811 60.1195 91.2407 59.4783 91.703 59.6429C92.3131 58.9919 93.2386 58.5124 93.0827 57.389C92.0139 52.8795 88.3248 54.8151 86.1822 52.7188C89.5529 54.1655 92.9277 52.5542 95.8465 55.4552C96.6161 56.7391 93.5414 57.389 94.7706 59.1527C94.4633 59.4783 93.7008 59.3134 93.5414 59.9592C94.1595 60.1195 94.7706 59.8026 95.3842 59.6429C95.8474 60.1195 96.4611 60.1195 97.0721 60.1195C97.6929 59.8026 98.4518 59.3134 98.4518 58.5124C97.6929 58.8357 97.0721 59.8026 96.3052 59.1527C96.6161 58.5124 96.9162 57.8688 97.0721 57.0648C97.8408 56.9002 98.7626 56.9002 99.3727 56.2596C99.6836 55.7823 99.6836 54.9675 99.6836 54.3259C100.453 55.1324 101.526 54.9675 102.296 55.7823C101.526 56.2596 100.76 56.4222 100.142 57.2189C99.9873 57.5501 99.6836 58.1857 99.8386 58.6732C100.453 59.8026 101.219 60.1195 102.14 59.9592C102.602 59.6429 103.062 58.9922 102.755 58.1857C102.602 59.4783 100.76 59.9592 100.605 58.1857C101.219 56.5853 102.451 56.7391 103.365 55.9347C104.753 56.5853 106.285 56.4222 107.365 57.7064C107.809 59.3134 106.285 58.9922 105.818 59.6429C106.895 59.9588 107.808 59.1527 108.585 58.6732C108.734 58.1855 108.734 57.389 108.585 56.7391C107.365 55.4552 105.974 55.4552 104.442 54.9675C104.753 54.3259 104.442 53.5211 104.138 53.3687C101.219 52.0748 97.8408 51.4332 94.7706 51.4332C91.703 51.4329 89.5529 52.7188 86.7894 50.1407C86.1826 49.6616 85.7129 48.8589 85.5682 47.892ZM36.9114 31.4699C36.9114 31.313 36.9114 31.313 36.9114 31.313C36.9114 31.313 36.9114 31.313 37.0683 31.313C36.9114 31.313 36.9114 31.313 36.9114 31.4699ZM96.9162 30.502C96.7719 30.8259 97.0721 31.4699 97.3821 31.632C97.6929 31.4699 98.1516 31.4699 98.1516 30.9877C97.9931 30.8259 98.1516 30.8259 97.9931 30.6637C98.3039 30.8259 98.4518 31.313 98.6148 31.632C98.1516 31.632 97.6929 31.313 97.3821 31.7928C97.0721 31.957 97.382 32.2827 97.0721 32.5989C96.7719 31.632 95.8465 32.9218 95.5401 31.7928C95.8474 31.313 96.1538 30.9877 96.4611 30.502H96.9162ZM95.8474 34.206C95.5401 34.3706 95.3842 34.6858 94.9255 34.6858V34.5327C94.7705 34.5327 94.3154 34.3706 94.3154 34.206C94.7706 33.7262 95.3842 34.0452 95.8465 34.206H95.8474Z" fill="#C7C8D3"/>
<path d="M2.45947 105.108H3.12147L4.55579 103.26H5.94162V105.108H6.48662V100.281H4.42485C3.80407 100.281 3.31485 100.474 3.01841 100.771C2.77653 101.005 2.65285 101.364 2.65285 101.736C2.65285 102.543 3.19724 103.032 3.96957 103.17L2.45947 105.108ZM4.45941 102.798C3.72163 102.798 3.19724 102.405 3.19724 101.778C3.19724 101.164 3.66647 100.771 4.45941 100.771H5.94162V102.798H4.45941ZM9.13339 105.108H9.67838V100.778H12.3955V105.108H12.9399V100.281H9.13339V105.108ZM17.8279 105.191C19.2968 105.191 20.2964 104.025 20.2964 102.695C20.2964 101.35 19.3101 100.198 17.8418 100.198C16.3729 100.198 15.3733 101.364 15.3733 102.695C15.3733 104.039 16.359 105.191 17.8279 105.191ZM17.8418 104.687C16.7385 104.687 15.9383 103.791 15.9383 102.695C15.9383 101.584 16.7245 100.702 17.8279 100.702C18.9312 100.702 19.7308 101.598 19.7308 102.695C19.7308 103.805 18.9451 104.687 17.8418 104.687ZM22.7292 105.108H23.2742V102.936H26.0604V105.108H26.6048V100.281H26.0604V102.426H23.2742V100.281H22.7292V105.108ZM31.4582 105.191C32.3342 105.191 32.8859 104.88 33.389 104.37L33.0308 103.991C32.5688 104.432 32.1342 104.687 31.4722 104.687C30.41 104.687 29.6038 103.812 29.6038 102.695C29.6038 101.571 30.4034 100.702 31.4722 100.702C32.1275 100.702 32.5822 100.978 32.9889 101.364L33.3478 100.978C32.8653 100.523 32.3548 100.198 31.4794 100.198C30.0584 100.198 29.0382 101.329 29.0382 102.695C29.0382 104.094 30.0657 105.191 31.4582 105.191ZM35.6224 105.108H36.1674V103.812L37.1943 102.77L39.0494 105.108H39.732L37.5738 102.391L39.6422 100.281H38.939L36.1674 103.163V100.281H35.6224V105.108ZM41.4482 105.108H42.0065L42.5788 103.832H45.2062L45.7718 105.108H46.358L44.158 100.247H43.6476L41.4482 105.108ZM42.7928 103.343L43.8961 100.881L44.9922 103.343H42.7928ZM48.1979 105.108H48.8599L50.2942 103.26H51.68V105.108H52.225V100.281H50.1633C49.5425 100.281 49.0527 100.474 48.7562 100.771C48.5149 101.005 48.3913 101.364 48.3913 101.736C48.3913 102.543 48.9357 103.032 49.708 103.17L48.1979 105.108ZM50.1978 102.798C49.4594 102.798 48.9357 102.405 48.9357 101.778C48.9357 101.164 49.4043 100.771 50.1978 100.771H51.68V102.798H50.1978ZM65.0897 105.108H68.6131V104.611H65.6347V102.922H68.2688V102.426H65.6347V100.778H68.5792V100.281H65.0897V105.108ZM70.9913 105.108H73.1361C74.191 105.108 74.8875 104.618 74.8875 103.791C74.8875 103.115 74.4256 102.784 73.8533 102.612C74.2322 102.446 74.6184 102.122 74.6184 101.495C74.6184 101.171 74.508 100.916 74.3086 100.709C74.0394 100.433 73.5981 100.281 73.0464 100.281H70.9913V105.108ZM71.5296 104.618V102.915H73.0531C73.8945 102.915 74.3359 103.219 74.3359 103.743C74.3359 104.294 73.8806 104.618 73.1501 104.618H71.5296ZM71.5296 102.433V100.771H72.9985C73.6878 100.771 74.0667 101.081 74.0667 101.557C74.0667 102.136 73.612 102.433 72.9567 102.433H71.5296ZM77.2518 105.108H77.7962V103.405H78.9686C79.9962 103.405 80.8649 102.867 80.8649 101.826C80.8649 100.86 80.1477 100.281 79.0584 100.281H77.2518V105.108ZM77.7962 102.908V100.784H79.0171C79.7961 100.784 80.3132 101.143 80.3132 101.833C80.3132 102.481 79.7895 102.908 78.9893 102.908H77.7962ZM85.3807 105.191C86.8495 105.191 87.8492 104.025 87.8492 102.695C87.8492 101.35 86.8629 100.198 85.3946 100.198C83.9257 100.198 82.9261 101.364 82.9261 102.695C82.9261 104.039 83.9118 105.191 85.3807 105.191ZM85.3946 104.687C84.2913 104.687 83.4911 103.791 83.4911 102.695C83.4911 101.584 84.2773 100.702 85.3807 100.702C86.484 100.702 87.2836 101.598 87.2836 102.695C87.2836 103.805 86.4979 104.687 85.3946 104.687ZM90.2826 105.108H90.827V100.778H93.5441V105.108H94.0891V100.281H90.2826V105.108ZM96.7359 105.108H100.259V104.611H97.2803V102.922H99.9143V102.426H97.2803V100.778H100.225V100.281H96.7359V105.108ZM102.637 105.108H103.168L106.044 101.102V105.108H106.582V100.281H106.064L103.182 104.287V100.281H102.637V105.108ZM104.644 99.8812C105.168 99.8812 105.547 99.5225 105.63 99.033L105.258 98.9572C105.175 99.2537 104.982 99.4398 104.644 99.4398C104.306 99.4398 104.113 99.2537 104.03 98.9572L103.658 99.033C103.741 99.5225 104.12 99.8812 104.644 99.8812ZM111.435 105.191C112.311 105.191 112.863 104.88 113.366 104.37L113.007 103.991C112.546 104.432 112.111 104.687 111.449 104.687C110.387 104.687 109.58 103.812 109.58 102.695C109.58 101.571 110.38 100.702 111.449 100.702C112.104 100.702 112.559 100.978 112.966 101.364L113.325 100.978C112.841 100.523 112.332 100.198 111.456 100.198C110.035 100.198 109.015 101.329 109.015 102.695C109.015 104.094 110.042 105.191 111.435 105.191ZM115.599 105.108H116.144V103.812L117.172 102.77L119.026 105.108H119.709L117.551 102.391L119.619 100.281H118.916L116.144 103.163V100.281H115.599V105.108ZM121.425 105.108H121.983L122.556 103.832H125.183L125.749 105.108H126.334L124.135 100.247H123.624L121.425 105.108ZM122.77 103.343L123.873 100.881L124.969 103.343H122.77ZM128.175 105.108H128.837L130.27 103.26H131.657V105.108H132.202V100.281H130.14C129.519 100.281 129.029 100.474 128.733 100.771C128.492 101.005 128.367 101.364 128.367 101.736C128.367 102.543 128.912 103.032 129.685 103.17L128.175 105.108ZM130.174 102.798C129.436 102.798 128.912 102.405 128.912 101.778C128.912 101.164 129.382 100.771 130.174 100.771H131.657V102.798H130.174ZM136.917 105.108H137.462V103.812L138.489 102.77L140.344 105.108H141.027L138.868 102.391L140.938 100.281H140.234L137.462 103.163V100.281H136.917V105.108ZM143.867 105.191C144.439 105.191 144.949 104.887 145.342 104.094L147.253 100.281H146.66L145.122 103.432L143.342 100.281H142.722L144.846 103.977C144.563 104.515 144.212 104.701 143.881 104.701C143.626 104.701 143.46 104.66 143.267 104.556L143.053 104.991C143.308 105.122 143.55 105.191 143.867 105.191ZM149.1 105.108H149.727L151.272 103.032L152.816 105.108H153.465L151.609 102.64L153.395 100.281H152.761L151.292 102.253L149.81 100.281H149.168L150.955 102.646L149.1 105.108ZM155.746 105.108H156.291V102.936H159.076V105.108H159.621V100.281H159.076V102.426H156.291V100.281H155.746V105.108ZM161.875 105.108H162.537L163.972 103.26H165.357V105.108H165.902V100.281H163.841C163.22 100.281 162.73 100.474 162.434 100.771C162.192 101.005 162.068 101.364 162.068 101.736C162.068 102.543 162.613 103.032 163.385 103.17L161.875 105.108ZM163.875 102.798C163.137 102.798 162.613 102.405 162.613 101.778C162.613 101.164 163.082 100.771 163.875 100.771H165.357V102.798H163.875Z" fill="#C7C8D3"/>
<path d="M60.4225 105.205L60.8366 104.887L59.9951 104.025C60.257 103.681 60.4777 103.267 60.6917 102.812L60.2431 102.605C60.0709 103.005 59.8781 103.37 59.6641 103.681L58.5608 102.557C59.264 102.308 59.6987 101.915 59.6987 101.302C59.6987 100.688 59.2022 100.198 58.5262 100.198C57.7612 100.198 57.2507 100.709 57.2507 101.343C57.2507 101.736 57.4023 102.033 57.7333 102.419C56.9955 102.708 56.5681 103.17 56.5681 103.811C56.5681 104.632 57.2162 105.177 58.0855 105.177C58.7123 105.177 59.2228 104.901 59.6641 104.425L60.4225 105.205ZM58.2577 102.246C57.8921 101.853 57.7745 101.639 57.7745 101.357C57.7745 100.95 58.0716 100.647 58.5056 100.647C58.8991 100.647 59.1882 100.929 59.1882 101.315C59.1882 101.743 58.8712 102.039 58.2577 102.246ZM58.1267 104.715C57.5332 104.715 57.1198 104.322 57.1198 103.805C57.1198 103.384 57.4023 102.991 58.0437 102.757L59.3331 104.087C58.9815 104.474 58.5814 104.715 58.1267 104.715Z" fill="#C7C8D3"/>
</svg>
