<svg width="12" height="15" viewBox="0 0 12 15" fill="none" xmlns="http://www.w3.org/2000/svg">
<path fill-rule="evenodd" clip-rule="evenodd" d="M5.85144 1.36464C4.51845 1.36464 3.43785 2.43831 3.43785 3.76276C3.43785 5.08721 4.51845 6.16088 5.85144 6.16088C7.18443 6.16088 8.26503 5.08721 8.26503 3.76276C8.26503 2.43831 7.18443 1.36464 5.85144 1.36464ZM2.32388 3.76276C2.32388 1.82703 3.90322 0.257812 5.85144 0.257812C7.79966 0.257812 9.379 1.82703 9.379 3.76276C9.379 5.69849 7.79966 7.26771 5.85144 7.26771C3.90322 7.26771 2.32388 5.69849 2.32388 3.76276Z" fill="#979797"/>
<path fill-rule="evenodd" clip-rule="evenodd" d="M4.02851 9.8503C2.47184 9.8503 1.20991 11.1041 1.20991 12.6508C1.20991 12.7321 1.22485 12.7894 1.24051 12.8228C1.25373 12.8509 1.26507 12.8589 1.27453 12.8641C1.7074 13.0981 2.92104 13.5397 5.85144 13.5397C8.78184 13.5397 9.99549 13.0981 10.4283 12.8641C10.4378 12.8589 10.4491 12.8509 10.4624 12.8228C10.478 12.7894 10.493 12.7321 10.493 12.6508C10.493 11.1041 9.23104 9.8503 7.67437 9.8503H4.02851ZM0.0959473 12.6508C0.0959473 10.4929 1.85662 8.74348 4.02851 8.74348H7.67437C9.84626 8.74348 11.6069 10.4929 11.6069 12.6508C11.6069 13.047 11.4626 13.565 10.9608 13.8363C10.2961 14.1957 8.8701 14.6465 5.85144 14.6465C2.83279 14.6465 1.4068 14.1957 0.742086 13.8363C0.240291 13.565 0.0959473 13.047 0.0959473 12.6508Z" fill="#979797"/>
</svg>
