<svg width="37" height="37" viewBox="0 0 37 37" fill="none" xmlns="http://www.w3.org/2000/svg">
<path d="M18.7094 33.3406C16.4415 33.347 14.2022 32.8339 12.1634 31.8406C11.4172 31.4776 10.7023 31.0537 10.0259 30.5731L9.82038 30.4231C7.96011 29.05 6.43919 27.2689 5.37438 25.2166C4.27298 23.0924 3.70174 20.7333 3.7093 18.3406C3.7093 10.0563 10.4251 3.34058 18.7094 3.34058C26.9937 3.34058 33.7095 10.0563 33.7095 18.3406C33.7169 20.7322 33.1462 23.0901 32.0459 25.2136C30.9826 27.2647 29.4638 29.0452 27.6059 30.4186C26.905 30.9316 26.1613 31.3832 25.3829 31.7686L25.2629 31.8286C23.2228 32.8271 20.9808 33.3444 18.7094 33.3406ZM18.7094 25.8405C16.4616 25.8362 14.4009 27.0916 13.3739 29.0911C16.736 30.7564 20.6828 30.7564 24.0449 29.0911V29.0836C23.0166 27.0863 20.9558 25.8337 18.7094 25.8405ZM18.7094 22.8406C21.9585 22.8448 24.9545 24.5957 26.5529 27.4246L26.5754 27.4051L26.5964 27.3871L26.5709 27.4096L26.5559 27.4216C30.3494 24.1442 31.7058 18.8541 29.9574 14.1557C28.2089 9.45739 23.724 6.34105 18.7109 6.34105C13.6977 6.34105 9.21287 9.45739 7.4644 14.1557C5.71594 18.8541 7.07238 24.1442 10.8659 27.4216C12.4653 24.5941 15.4609 22.8445 18.7094 22.8406ZM18.7094 21.3406C15.3957 21.3406 12.7094 18.6543 12.7094 15.3406C12.7094 12.0269 15.3957 9.34058 18.7094 9.34058C22.0231 9.34058 24.7094 12.0269 24.7094 15.3406C24.7094 16.9319 24.0772 18.458 22.952 19.5832C21.8268 20.7084 20.3007 21.3406 18.7094 21.3406ZM18.7094 12.3406C17.0525 12.3406 15.7094 13.6837 15.7094 15.3406C15.7094 16.9974 17.0525 18.3406 18.7094 18.3406C20.3662 18.3406 21.7094 16.9974 21.7094 15.3406C21.7094 13.6837 20.3662 12.3406 18.7094 12.3406Z" fill="#2E3A59"/>
</svg>
