<svg width="25" height="25" viewBox="0 0 25 25" fill="none" xmlns="http://www.w3.org/2000/svg">
<path d="M18.8853 3.33447V9.33447M15.8853 6.33447H21.8853" stroke="#BDBDBD" stroke-width="2" stroke-linecap="round" stroke-linejoin="round"/>
<path d="M4.88525 7.33447C4.88525 5.67762 6.2284 4.33447 7.88525 4.33447L11.8853 4.33448C12.4375 4.33448 12.8853 4.78219 12.8853 5.33448V12.3345H4.88525V7.33447Z" stroke="#BDBDBD" stroke-width="2" stroke-linejoin="round"/>
<path d="M20.8853 17.3345C20.8853 18.9913 19.5421 20.3345 17.8853 20.3345H13.8853C13.333 20.3345 12.8853 19.8868 12.8853 19.3345L12.8853 12.3345L20.8853 12.3345L20.8853 17.3345Z" stroke="#BDBDBD" stroke-width="2" stroke-linejoin="round"/>
<path d="M7.88525 20.3345C6.2284 20.3345 4.88525 18.9913 4.88525 17.3345L4.88525 13.3345C4.88525 12.7822 5.33297 12.3345 5.88525 12.3345L12.8853 12.3345L12.8853 20.3345H7.88525Z" stroke="#BDBDBD" stroke-width="2" stroke-linejoin="round"/>
</svg>
