<svg width="25" height="25" viewBox="0 0 25 25" fill="none" xmlns="http://www.w3.org/2000/svg">
<path d="M5.91089 5.87622C4.80632 5.87622 3.91089 6.77165 3.91089 7.87622V17.8762C3.91089 18.9808 4.80632 19.8762 5.91089 19.8762H10.9109C12.0155 19.8762 12.9109 18.9808 12.9109 17.8762C12.9109 18.9808 13.8063 19.8762 14.9109 19.8762H19.9109C21.0155 19.8762 21.9109 18.9808 21.9109 17.8762V7.87622C21.9109 6.77165 21.0155 5.87622 19.9109 5.87622H14.9109C13.8063 5.87622 12.9109 6.77165 12.9109 7.87622C12.9109 6.77165 12.0155 5.87622 10.9109 5.87622H5.91089Z" stroke="#BFBFBF" stroke-width="2" stroke-linecap="round" stroke-linejoin="round"/>
<path d="M6.91089 9.87622H9.91089" stroke="#BFBFBF" stroke-width="2" stroke-linecap="round" stroke-linejoin="round"/>
<path d="M6.91089 12.8762H9.91089" stroke="#BFBFBF" stroke-width="2" stroke-linecap="round" stroke-linejoin="round"/>
<path d="M6.91089 15.8762H9.91089" stroke="#BFBFBF" stroke-width="2" stroke-linecap="round" stroke-linejoin="round"/>
<path d="M15.9109 9.87622H18.9109" stroke="#BFBFBF" stroke-width="2" stroke-linecap="round" stroke-linejoin="round"/>
<path d="M15.9109 12.8762H18.9109" stroke="#BFBFBF" stroke-width="2" stroke-linecap="round" stroke-linejoin="round"/>
<path d="M15.9109 15.8762H18.9109" stroke="#BFBFBF" stroke-width="2" stroke-linecap="round" stroke-linejoin="round"/>
</svg>
