<svg xmlns="http://www.w3.org/2000/svg"
 width="512.000000pt" height="512.000000pt" viewBox="0 0 512.000000 512.000000"
 preserveAspectRatio="xMidYMid meet">

<g transform="translate(0.000000,512.000000) scale(0.100000,-0.100000)"
fill="#000000" stroke="none">
<path d="M2320 5110 c-317 -33 -599 -114 -885 -255 -272 -133 -476 -278 -684
-486 -326 -326 -559 -737 -672 -1182 -196 -777 -14 -1610 488 -2232 103 -128
321 -340 443 -431 200 -150 448 -286 675 -369 135 -50 372 -109 530 -131 190
-27 529 -25 720 4 276 43 495 112 750 237 268 131 460 269 681 489 220 221
357 412 489 681 123 250 194 476 237 750 31 201 31 560 0 755 -46 279 -116
499 -242 755 -129 262 -278 471 -482 675 -395 394 -883 638 -1448 725 -124 19
-477 28 -600 15z m580 -215 c524 -79 1004 -328 1366 -708 221 -232 396 -513
508 -813 99 -268 140 -506 140 -814 0 -238 -13 -355 -65 -569 -170 -695 -665
-1288 -1321 -1581 -202 -91 -406 -150 -638 -187 -159 -24 -499 -24 -660 1
-545 84 -1007 322 -1378 711 -339 355 -551 792 -629 1295 -24 159 -24 499 1
665 58 393 213 766 453 1087 98 132 339 372 471 468 357 262 747 413 1187 460
115 12 442 4 565 -15z"/>
<path d="M2380 4515 c-326 -65 -598 -320 -690 -647 -27 -95 -37 -272 -21 -373
25 -154 92 -305 190 -428 55 -70 166 -168 219 -196 31 -16 28 -25 -15 -40
-132 -46 -315 -173 -445 -309 -137 -143 -230 -296 -293 -485 -56 -168 -65
-251 -65 -610 l0 -319 29 -29 29 -29 1242 0 1242 0 29 29 29 29 0 319 c0 359
-9 442 -65 610 -40 120 -78 198 -152 311 -67 105 -217 260 -325 338 -80 57
-258 154 -285 154 -24 0 -13 17 30 45 243 161 397 448 397 745 0 431 -307 805
-728 886 -90 17 -264 17 -352 -1z m352 -204 c413 -106 636 -551 475 -948 -51
-125 -150 -244 -267 -318 -215 -137 -461 -152 -685 -41 -238 118 -379 330
-393 592 -14 279 129 527 380 659 141 74 333 96 490 56z m53 -1605 c225 -49
418 -157 573 -320 128 -135 220 -300 269 -483 25 -92 27 -114 31 -375 l4 -278
-1102 0 -1102 0 4 278 c4 261 6 283 31 375 81 301 277 550 548 696 94 51 221
94 320 111 41 6 81 13 89 15 35 9 271 -5 335 -19z"/>
</g>
</svg>
