<svg width="25" height="25" viewBox="0 0 25 25" fill="none" xmlns="http://www.w3.org/2000/svg">
<path d="M10.1592 5.22508L11.1257 5.48204V5.48204L10.1592 5.22508ZM15.6623 5.22509L14.6959 5.48204V5.48204L15.6623 5.22509ZM18.5966 6.8062L18.3369 5.84053L18.5966 6.8062ZM20.7473 7.6391L21.5995 7.11585V7.11585L20.7473 7.6391ZM21.6528 9.11378L22.505 8.59052L22.505 8.59052L21.6528 9.11378ZM21.3446 11.2815L20.6719 10.5416L20.6719 10.5416L21.3446 11.2815ZM21.3446 14.4709L20.6719 15.2108H20.6719L21.3446 14.4709ZM21.6528 16.6387L22.505 17.1619L22.505 17.1619L21.6528 16.6387ZM20.7473 18.1133L19.8951 17.5901L20.7473 18.1133ZM18.5966 18.9462L18.8564 17.9806L18.5966 18.9462ZM15.6623 20.5274L14.6959 20.2704L15.6623 20.5274ZM10.1592 20.5274L9.1928 20.7843L10.1592 20.5274ZM7.22567 18.9465L7.48535 19.9122H7.48535L7.22567 18.9465ZM5.07474 18.1135L4.22262 18.6369H4.22262L5.07474 18.1135ZM4.16907 16.639L5.02118 16.1156L4.16907 16.639ZM4.47717 14.4715L3.80457 13.7315H3.80457L4.47717 14.4715ZM4.47717 11.281L3.80457 12.021H3.80457L4.47717 11.281ZM4.16907 9.11349L3.31696 8.59013L3.31696 8.59013L4.16907 9.11349ZM5.07474 7.63892L4.22262 7.11556H4.22262L5.07474 7.63892ZM7.22567 6.80598L6.966 7.77168L7.22567 6.80598ZM9.42732 6.39051L9.01342 5.48018L9.42732 6.39051ZM10.0339 5.69651L9.06746 5.43955L10.0339 5.69651ZM7.77431 6.95351L7.51463 7.91921L7.77431 6.95351ZM8.61079 6.82172L9.12946 7.67669L8.61079 6.82172ZM4.77544 11.5521L5.44804 10.8121L4.77544 11.5521ZM8.61079 18.9307L8.09213 19.7857L8.61079 18.9307ZM7.77431 18.7989L7.51463 17.8332L7.77431 18.7989ZM4.77544 14.2004L5.44804 14.9404L4.77544 14.2004ZM5.1133 13.3166L4.11535 13.3806L5.1133 13.3166ZM16.3952 19.2129L15.9418 18.3217L16.3952 19.2129ZM15.8325 19.8872L14.8661 19.6302L15.8325 19.8872ZM17.8328 18.7408L18.0926 17.7751L17.8328 18.7408ZM16.9846 18.8801L17.5139 19.7285L16.9846 18.8801ZM10.0339 20.0559L9.06746 20.3129L10.0339 20.0559ZM9.42732 19.3619L9.01342 20.2723L9.42732 19.3619ZM20.4107 13.0858L19.4111 13.0554L20.4107 13.0858ZM20.7512 13.9315L21.4239 13.1916L20.7512 13.9315ZM20.7512 11.8209L21.4239 12.5609L20.7512 11.8209ZM20.4107 12.6666L21.4102 12.6362L20.4107 12.6666ZM16.9846 6.87237L16.4553 7.7208L16.9846 6.87237ZM17.8328 7.01167L17.5731 6.046L17.8328 7.01167ZM15.8325 5.86524L14.8661 6.1222L15.8325 5.86524ZM16.3952 6.5395L16.8487 5.64822L16.3952 6.5395ZM11.9488 2.87622C10.6692 2.87622 9.52455 3.72039 9.1928 4.96813L11.1257 5.48204C11.2162 5.14143 11.5434 4.87622 11.9488 4.87622V2.87622ZM13.8728 2.87622H11.9488V4.87622H13.8728V2.87622ZM16.6287 4.96813C16.297 3.72039 15.1524 2.87622 13.8728 2.87622V4.87622C14.2781 4.87622 14.6053 5.14143 14.6959 5.48204L16.6287 4.96813ZM16.7989 5.60829L16.6287 4.96813L14.6959 5.48204L14.8661 6.1222L16.7989 5.60829ZM17.5139 6.02394C17.2986 5.88962 17.0767 5.76421 16.8487 5.64822L15.9418 7.43078C16.118 7.52043 16.2893 7.61726 16.4553 7.7208L17.5139 6.02394ZM18.3369 5.84053L17.5731 6.046L18.0926 7.97734L18.8564 7.77187L18.3369 5.84053ZM21.5995 7.11585C20.923 6.01416 19.5758 5.50724 18.3369 5.84053L18.8564 7.77187C19.2696 7.66072 19.6981 7.84147 19.8951 8.16236L21.5995 7.11585ZM22.505 8.59052L21.5995 7.11585L19.8951 8.16236L20.8006 9.63703L22.505 8.59052ZM22.0173 12.0215C22.9904 11.1367 23.1932 9.71142 22.505 8.59052L20.8006 9.63703C20.9858 9.9387 20.9342 10.3032 20.6719 10.5416L22.0173 12.0215ZM21.4239 12.5609L22.0173 12.0215L20.6719 10.5416L20.0786 11.081L21.4239 12.5609ZM21.4138 12.8762C21.4138 12.796 21.4126 12.716 21.4102 12.6362L19.4111 12.697C19.4129 12.7565 19.4138 12.8162 19.4138 12.8762H21.4138ZM21.4102 13.1162C21.4126 13.0365 21.4138 12.9565 21.4138 12.8762H19.4138C19.4138 12.9362 19.4129 12.9959 19.4111 13.0554L21.4102 13.1162ZM22.0173 13.731L21.4239 13.1916L20.0786 14.6714L20.6719 15.2108L22.0173 13.731ZM22.505 17.1619C23.1932 16.041 22.9904 14.6157 22.0173 13.731L20.6719 15.2108C20.9342 15.4493 20.9858 15.8137 20.8006 16.1154L22.505 17.1619ZM21.5995 18.6366L22.505 17.1619L20.8006 16.1154L19.8951 17.5901L21.5995 18.6366ZM18.3369 19.9119C19.5758 20.2452 20.923 19.7383 21.5995 18.6366L19.8951 17.5901C19.6981 17.911 19.2696 18.0917 18.8564 17.9806L18.3369 19.9119ZM17.5731 19.7064L18.3369 19.9119L18.8564 17.9806L18.0926 17.7751L17.5731 19.7064ZM16.8487 20.1042C17.0767 19.9882 17.2986 19.8628 17.5139 19.7285L16.4553 18.0316C16.2893 18.1352 16.118 18.232 15.9418 18.3217L16.8487 20.1042ZM16.6287 20.7843L16.7989 20.1441L14.8661 19.6302L14.6959 20.2704L16.6287 20.7843ZM13.8728 22.8762C15.1524 22.8762 16.297 22.0321 16.6287 20.7843L14.6959 20.2704C14.6053 20.611 14.2781 20.8762 13.8728 20.8762V22.8762ZM11.9488 22.8762H13.8728V20.8762H11.9488V22.8762ZM9.1928 20.7843C9.52455 22.0321 10.6692 22.8762 11.9488 22.8762V20.8762C11.5434 20.8762 11.2162 20.611 11.1257 20.2704L9.1928 20.7843ZM9.06746 20.3129L9.1928 20.7843L11.1257 20.2704L11.0003 19.799L9.06746 20.3129ZM8.09213 19.7857C8.38759 19.9649 8.69518 20.1276 9.01342 20.2723L9.84121 18.4516C9.59494 18.3396 9.35731 18.214 9.12946 18.0757L8.09213 19.7857ZM7.48535 19.9122L8.03398 19.7646L7.51463 17.8332L6.966 17.9808L7.48535 19.9122ZM4.22262 18.6369C4.89919 19.7384 6.24642 20.2453 7.48535 19.9122L6.966 17.9808C6.55263 18.0919 6.12395 17.9111 5.92685 17.5902L4.22262 18.6369ZM3.31696 17.1623L4.22262 18.6369L5.92685 17.5902L5.02118 16.1156L3.31696 17.1623ZM3.80457 13.7315C2.83124 14.6161 2.62854 16.0415 3.31696 17.1623L5.02118 16.1156C4.83593 15.814 4.88762 15.4497 5.14977 15.2115L3.80457 13.7315ZM4.10284 13.4604L3.80457 13.7315L5.14977 15.2115L5.44804 14.9404L4.10284 13.4604ZM4.09921 12.8762C4.09921 13.0455 4.10464 13.2136 4.11535 13.3806L6.11125 13.2525C6.10327 13.1282 6.09921 13.0027 6.09921 12.8762H4.09921ZM4.11535 12.3719C4.10464 12.5388 4.09921 12.707 4.09921 12.8762H6.09921C6.09921 12.7497 6.10327 12.6243 6.11125 12.4999L4.11535 12.3719ZM3.80457 12.021L4.10284 12.2921L5.44804 10.8121L5.14977 10.541L3.80457 12.021ZM3.31696 8.59013C2.62854 9.71098 2.83124 11.1363 3.80457 12.021L5.14977 10.541C4.88762 10.3027 4.83593 9.93845 5.02118 9.63684L3.31696 8.59013ZM4.22262 7.11556L3.31696 8.59013L5.02118 9.63684L5.92685 8.16228L4.22262 7.11556ZM7.48535 5.84029C6.24642 5.50714 4.89919 6.014 4.22262 7.11556L5.92685 8.16228C6.12395 7.84137 6.55263 7.66052 6.966 7.77168L7.48535 5.84029ZM8.03398 5.98782L7.48535 5.84029L6.966 7.77168L7.51463 7.91921L8.03398 5.98782ZM9.01342 5.48018C8.69518 5.62488 8.38759 5.7875 8.09213 5.96674L9.12946 7.67669C9.35731 7.53847 9.59494 7.4128 9.84121 7.30083L9.01342 5.48018ZM9.1928 4.96813L9.06746 5.43955L11.0003 5.95346L11.1257 5.48204L9.1928 4.96813ZM9.84121 7.30083C10.3748 7.05823 10.8316 6.58793 11.0003 5.95346L9.06746 5.43955C9.06852 5.43559 9.0691 5.43824 9.06169 5.4466C9.05352 5.4558 9.03781 5.46909 9.01342 5.48018L9.84121 7.30083ZM7.51463 7.91921C8.09223 8.07453 8.67262 7.95383 9.12946 7.67669L8.09213 5.96674C8.071 5.97955 8.05312 5.98493 8.04218 5.98673C8.0321 5.98839 8.03021 5.9868 8.03398 5.98782L7.51463 7.91921ZM6.11125 12.4999C6.14919 11.9085 5.94857 11.267 5.44804 10.8121L4.10284 12.2921C4.09929 12.2889 4.10245 12.2897 4.10712 12.3022C4.11226 12.3161 4.11739 12.3401 4.11535 12.3719L6.11125 12.4999ZM9.12946 18.0757C8.67262 17.7986 8.09223 17.6779 7.51463 17.8332L8.03398 19.7646C8.03021 19.7656 8.0321 19.7641 8.04218 19.7657C8.05312 19.7675 8.071 19.7729 8.09213 19.7857L9.12946 18.0757ZM5.44804 14.9404C5.94857 14.4854 6.14919 13.844 6.11125 13.2525L4.11535 13.3806C4.11739 13.4123 4.11226 13.4364 4.10712 13.4502C4.10245 13.4627 4.09929 13.4636 4.10284 13.4604L5.44804 14.9404ZM15.9418 18.3217C15.4459 18.5739 15.026 19.0287 14.8661 19.6302L16.7989 20.1441C16.7979 20.148 16.7974 20.1455 16.8042 20.1375C16.8117 20.1287 16.826 20.1158 16.8487 20.1042L15.9418 18.3217ZM18.0926 17.7751C17.5055 17.6172 16.9158 17.7443 16.4553 18.0316L17.5139 19.7285C17.5353 19.7152 17.5535 19.7095 17.5647 19.7076C17.575 19.7058 17.5769 19.7075 17.5731 19.7064L18.0926 17.7751ZM11.0003 19.799C10.8316 19.1645 10.3748 18.6942 9.84121 18.4516L9.01342 20.2723C9.03781 20.2833 9.05352 20.2966 9.06168 20.3058C9.0691 20.3142 9.06852 20.3169 9.06746 20.3129L11.0003 19.799ZM19.4111 13.0554C19.3938 13.6251 19.5983 14.2348 20.0786 14.6714L21.4239 13.1916C21.4274 13.1947 21.4244 13.1938 21.4197 13.182C21.4147 13.1691 21.4093 13.1465 21.4102 13.1162L19.4111 13.0554ZM20.0786 11.081C19.5983 11.5176 19.3938 12.1274 19.4111 12.697L21.4102 12.6362C21.4093 12.6059 21.4147 12.5833 21.4197 12.5704C21.4244 12.5586 21.4274 12.5578 21.4239 12.5609L20.0786 11.081ZM16.4553 7.7208C16.9158 8.00812 17.5055 8.13529 18.0926 7.97734L17.5731 6.046C17.5769 6.04498 17.575 6.04661 17.5647 6.04485C17.5535 6.04293 17.5353 6.03727 17.5139 6.02394L16.4553 7.7208ZM14.8661 6.1222C15.026 6.72374 15.446 7.17853 15.9418 7.43078L16.8487 5.64822C16.826 5.63669 16.8117 5.62375 16.8042 5.61497C16.7974 5.60693 16.7979 5.60444 16.7989 5.60829L14.8661 6.1222Z" fill="#BFBFBF"/>
<circle cx="12.9109" cy="12.8762" r="2" stroke="#BFBFBF" stroke-width="2" stroke-linecap="round" stroke-linejoin="round"/>
</svg>
