<svg width="151" height="161" viewBox="0 0 151 161" fill="none" xmlns="http://www.w3.org/2000/svg">
<path d="M150.509 95.3371H144.005C143.763 80.4459 133.302 68.0012 119.339 64.7245C119.075 60.9191 115.901 57.8999 112.031 57.8999C108.158 57.8999 104.986 60.9189 104.722 64.7245C90.7605 68.0024 80.2983 80.4459 80.0568 95.3371H74.2752C73.4849 85.0641 64.9056 76.521 53.9257 76.521H28.8635C21.4787 76.521 15.1781 80.3851 11.6027 86.0425L11.0924 86.3499C4.2206 90.6221 0.116302 97.9979 0.116302 106.08C0.116302 114.633 4.79787 122.468 12.3706 126.549L15.147 127.965L16.3603 133.169C19.072 144.806 29.4458 153.042 41.3977 153.042C53.3471 153.042 63.722 144.807 66.4351 133.169L73.7265 101.883C78.5986 108.06 86.0505 111.766 94.0823 111.766C103.257 111.766 111.681 106.936 116.358 99.1009H150.513L150.515 95.3378L150.509 95.3371ZM112.031 61.663C113.585 61.663 114.906 62.6623 115.396 64.0499C114.29 63.9341 113.167 63.8719 112.031 63.8719C110.895 63.8719 109.772 63.9341 108.666 64.0499C109.158 62.661 110.478 61.663 112.031 61.663ZM3.87863 106.077C3.87863 101.202 5.66818 96.6385 8.80679 93.1329C8.29654 95.8246 8.32022 98.6756 8.99097 101.556L14.0262 123.158C7.76538 119.741 3.87867 113.207 3.87867 106.077H3.87863ZM70.1342 100.702L62.7657 132.314C60.4373 142.301 51.6488 149.277 41.3946 149.277C31.1404 149.277 22.3494 142.302 20.0234 132.314L12.6549 100.703C11.4951 95.7277 12.6512 90.5807 15.8271 86.5783C19.003 82.5773 23.7531 80.2825 28.8628 80.2825H53.9276C59.0348 80.2825 63.7861 82.5773 66.9621 86.5783C70.1367 90.5804 71.2929 95.7277 70.1342 100.702ZM94.0776 108.002C87.0127 108.002 80.462 104.658 76.308 99.099H111.849C107.694 104.658 101.143 108.002 94.0782 108.002H94.0776ZM83.8196 95.3368C84.0996 80.0149 96.6438 67.6351 112.032 67.6351C127.419 67.6351 139.962 80.0149 140.244 95.3368H83.8196Z" fill="url(#paint0_linear_1_8)"/>
<path d="M19.1674 72.8356H63.6223C74.1929 72.8356 82.7921 64.2364 82.7921 53.6658C82.7921 32.2014 65.3299 14.7383 43.8645 14.7383H43.2771V10.9602C45.4661 10.1824 47.0392 8.09668 47.0392 5.64496C47.0417 2.53133 44.5092 0 41.3968 0C38.2832 0 35.7519 2.53123 35.7519 5.64496C35.7519 8.09655 37.3273 10.1835 39.5162 10.9615V14.7395H38.9276C17.4631 14.7395 0 32.2017 0 53.6671C0 64.2364 8.59933 72.8356 19.1674 72.8356ZM41.3958 3.76373C42.4337 3.76373 43.2774 4.60747 43.2774 5.64534C43.2774 6.68322 42.4337 7.52696 41.3958 7.52696C40.3579 7.52696 39.5142 6.68322 39.5142 5.64534C39.5129 4.60871 40.3567 3.76373 41.3958 3.76373ZM38.9268 18.5045H43.8674C63.256 18.5045 79.0293 34.2795 79.0293 53.6665C79.0293 62.1624 72.1177 69.0715 63.6243 69.0715H19.1661C10.6701 69.0715 3.76103 62.1599 3.76103 53.6665C3.76103 34.2792 19.5366 18.5045 38.9268 18.5045Z" fill="url(#paint1_linear_1_8)"/>
<path d="M41.395 96.4074C36.0699 96.4074 31.7356 100.741 31.7356 106.067C31.7356 111.392 36.0689 115.726 41.395 115.726C46.7226 115.726 51.0544 111.393 51.0544 106.067C51.0532 100.742 46.7211 96.4074 41.395 96.4074ZM41.395 111.963C38.1394 111.963 35.4987 109.322 35.4987 106.067C35.4987 102.811 38.1394 100.171 41.395 100.171C44.6506 100.171 47.2913 102.811 47.2913 106.067C47.2913 109.325 44.6506 111.963 41.395 111.963Z" fill="url(#paint2_linear_1_8)"/>
<path d="M49.5475 156.805H33.2389C32.201 156.805 31.3573 157.647 31.3573 158.686C31.3573 159.727 32.201 160.567 33.2414 160.567H49.55C50.5879 160.567 51.4316 159.724 51.4316 158.685C51.4316 157.645 50.5879 156.805 49.5475 156.805Z" fill="url(#paint3_linear_1_8)"/>
<path d="M41.395 61.3921C39.3043 61.3921 37.4127 60.5335 36.0463 59.1534H31.4256C33.3258 62.7199 37.0791 65.1554 41.3937 65.1554C45.707 65.1554 49.4615 62.72 51.3618 59.1534H46.7411C45.3772 60.5335 43.483 61.3921 41.395 61.3921Z" fill="url(#paint4_linear_1_8)"/>
<path d="M28.2152 44.2493C29.6264 44.2493 30.8397 45.0968 31.3798 46.3101H35.3048C34.6477 42.995 31.7207 40.4874 28.215 40.4874C24.7094 40.4874 21.7813 42.9962 21.1253 46.3101H25.0502C25.5903 45.0993 26.8037 44.2493 28.2149 44.2493H28.2152Z" fill="url(#paint5_linear_1_8)"/>
<path d="M54.6001 44.2493C56.0113 44.2493 57.2247 45.0968 57.7647 46.3101H61.6897C61.0326 42.995 58.1056 40.4874 54.5999 40.4874C51.0943 40.4874 48.1662 42.9962 47.5102 46.3101H51.4351C51.9752 45.0993 53.1911 44.2493 54.5998 44.2493H54.6001Z" fill="url(#paint6_linear_1_8)"/>
<path d="M21.3241 54.431H61.4655C65.9616 54.431 69.6192 50.7737 69.6192 46.2772V40.4755C69.6192 35.9794 65.9619 32.3217 61.4655 32.3217H21.3241C16.8279 32.3217 13.1703 35.979 13.1703 40.4755V46.2772C13.1703 50.7734 16.8276 54.431 21.3241 54.431ZM16.9337 40.4755C16.9337 38.055 18.9037 36.0851 21.3241 36.0851H61.4655C63.8859 36.0851 65.8558 38.0551 65.8558 40.4755V46.2772C65.8558 48.6977 63.8858 50.6676 61.4655 50.6676H21.3241C18.9036 50.6676 16.9337 48.6976 16.9337 46.2772V40.4755Z" fill="url(#paint7_linear_1_8)"/>
<defs>
<linearGradient id="paint0_linear_1_8" x1="75.3155" y1="57.8999" x2="75.3155" y2="153.042" gradientUnits="userSpaceOnUse">
<stop stop-color="#8E97B7"/>
<stop offset="1" stop-color="#3A99C2"/>
</linearGradient>
<linearGradient id="paint1_linear_1_8" x1="41.396" y1="0" x2="41.396" y2="72.8356" gradientUnits="userSpaceOnUse">
<stop stop-color="#8E97B7"/>
<stop offset="1" stop-color="#3A99C2"/>
</linearGradient>
<linearGradient id="paint2_linear_1_8" x1="41.395" y1="96.4074" x2="41.395" y2="115.726" gradientUnits="userSpaceOnUse">
<stop stop-color="#8E97B7"/>
<stop offset="1" stop-color="#3A99C2"/>
</linearGradient>
<linearGradient id="paint3_linear_1_8" x1="41.3945" y1="156.805" x2="41.3945" y2="160.567" gradientUnits="userSpaceOnUse">
<stop stop-color="#8E97B7"/>
<stop offset="1" stop-color="#3A99C2"/>
</linearGradient>
<linearGradient id="paint4_linear_1_8" x1="41.3937" y1="59.1534" x2="41.3937" y2="65.1554" gradientUnits="userSpaceOnUse">
<stop stop-color="#8E97B7"/>
<stop offset="1" stop-color="#3A99C2"/>
</linearGradient>
<linearGradient id="paint5_linear_1_8" x1="28.215" y1="40.4874" x2="28.215" y2="46.3101" gradientUnits="userSpaceOnUse">
<stop stop-color="#8E97B7"/>
<stop offset="1" stop-color="#3A99C2"/>
</linearGradient>
<linearGradient id="paint6_linear_1_8" x1="54.5999" y1="40.4874" x2="54.5999" y2="46.3101" gradientUnits="userSpaceOnUse">
<stop stop-color="#8E97B7"/>
<stop offset="1" stop-color="#3A99C2"/>
</linearGradient>
<linearGradient id="paint7_linear_1_8" x1="41.3948" y1="32.3217" x2="41.3948" y2="54.431" gradientUnits="userSpaceOnUse">
<stop stop-color="#8E97B7"/>
<stop offset="1" stop-color="#3A99C2"/>
</linearGradient>
</defs>
</svg>
